<?xml version="1.0" encoding="utf-8"?>
<!-- Generator: Adobe Illustrator 25.3.0, SVG Export Plug-In . SVG Version: 6.00 Build 0)  -->
<svg version="1.1" id="Layer_1" xmlns="http://www.w3.org/2000/svg" xmlns:xlink="http://www.w3.org/1999/xlink" x="0px" y="0px"
	 viewBox="0 0 297.5 312.6" style="enable-background:new 0 0 297.5 312.6;" xml:space="preserve">
<style type="text/css">
	.st0{enable-background:new    ;}
	.st1{fill:#FFFFFF;}
	.st2{fill:#AA4285;}
	.st3{fill:#EBEBEB;}
	.st4{fill:#455A64;}
	.st5{fill:#DBDBDB;}
	.st6{fill:#263238;}
	.st7{fill:#A6A6A6;}
	.st8{fill:#C7C7C7;}
	.st9{fill:#A6D453;}
	.st10{fill:#F7A9A0;}
	.st11{opacity:0.2;enable-background:new    ;}
	.st12{fill:#37474F;}
	.st13{fill:#FF99BA;}
</style>
<g class="st0">
	<path class="st1" d="M216.9,23v243c0,6.9-5.1,12.4-11.5,12.4H92c-6.4,0-11.5-5.6-11.5-12.4V23C80.5,9,85.7,8.3,92,8.3h22.7
		c1.3,0,2.4,1.5,2.4,3.4v0.8c0,4.4,2.4,4.4,5.3,4.4H175c3,0,5.3,0,5.3-4.4v-0.8c0-1.9,1.1-3.4,2.4-3.4h22.7
		C211.8,8.3,216.9,10.1,216.9,23z"/>
	<path class="st1" d="M216.9,23v243c0,6.9-5.1,12.4-11.5,12.4H92c-6.4,0-11.5-5.6-11.5-12.4V23C80.5,9,85.7,8.3,92,8.3h22.7
		c1.3,0,2.4,1.5,2.4,3.4v0.8c0,4.4,2.4,4.4,5.3,4.4H175c3,0,5.3,0,5.3-4.4v-0.8c0-1.9,1.1-3.4,2.4-3.4h22.7
		C211.8,8.3,216.9,10.1,216.9,23z"/>
	<path class="st2" d="M216.9,23v21.6H80.5V23C80.5,9,85.6,8.3,92,8.3h22.7c1.3,0,2.4,1.5,2.4,3.4v0.8c0,4.4,2.4,4.4,5.3,4.4H175
		c3,0,5.3,0,5.3-4.4v-0.8c0-1.9,1.1-3.4,2.4-3.4h22.7C211.8,8.3,216.9,10.1,216.9,23z"/>
	<path class="st3" d="M297.5,297.2c0,8.5-66.6,15.3-148.7,15.3C66.6,312.6,0,305.7,0,297.2c0-8.5,66.6-15.3,148.7-15.3
		C230.9,281.9,297.5,288.8,297.5,297.2z"/>
	<path class="st1" d="M110.8,13.7l-0.2,0.2c0,0-0.1,0.1-0.1,0.1c-1.2-1.2-3.1-1.2-4.2,0l-0.1-0.1l-0.2-0.2l0.3-0.2
		c0.2-0.2,0.4-0.3,0.6-0.4c0.3-0.1,0.6-0.2,0.8-0.3c0.1,0,0.3,0,0.4-0.1c0.1-0.1,0.4,0,0.4,0h0.3c0.3,0,0.5,0.1,0.8,0.2
		c0.2,0.1,0.4,0.1,0.5,0.2c0.2,0.1,0.3,0.2,0.5,0.4L110.8,13.7L110.8,13.7L110.8,13.7z"/>
	<path class="st1" d="M106.9,14.8c-0.1-0.1-0.2-0.2-0.3-0.3c1-1,2.6-1,3.5,0l-0.3,0.3c-0.4-0.4-0.9-0.6-1.4-0.6
		C107.8,14.2,107.3,14.4,106.9,14.8z"/>
	<path class="st1" d="M109.4,15.1l-0.3,0.3c-0.4-0.4-1.1-0.4-1.5,0l-0.3-0.3C107.9,14.5,108.8,14.5,109.4,15.1z"/>
	<path class="st1" d="M108.7,15.8c0,0.2-0.1,0.3-0.3,0.3c-0.2,0-0.4-0.1-0.4-0.3c0-0.2,0.2-0.3,0.4-0.3
		C108.5,15.5,108.7,15.6,108.7,15.8z"/>
	<path class="st1" d="M199.7,16h6.6v-2.6h-6.6V16z M206.7,16.4h-7.4V13h7.4V16.4z M100.8,14.4c0-0.8,1-1.2,1.6-0.6
		c0.6,0.6,0.2,1.5-0.6,1.5C101.2,15.3,100.8,14.9,100.8,14.4z M98,14.4c0-0.8,1-1.2,1.6-0.6c0.6,0.6,0.2,1.6-0.7,1.5
		C98.4,15.3,98,14.9,98,14.4z M95.1,14.4c0-0.8,1-1.2,1.6-0.6c0.6,0.6,0.2,1.6-0.7,1.5C95.5,15.3,95.1,14.9,95.1,14.4z M92.3,14.4
		c0-0.8,1-1.2,1.6-0.6c0.6,0.6,0.2,1.5-0.6,1.5C92.7,15.3,92.3,14.9,92.3,14.4z M89.4,14.4c0-0.8,1-1.2,1.6-0.6
		c0.6,0.6,0.2,1.5-0.6,1.5C89.8,15.3,89.4,14.9,89.4,14.4z"/>
	<path class="st1" d="M155.9,11.4h-14.3c-0.5,0-0.9-0.4-0.9-0.9c0-0.5,0.4-0.9,0.9-0.9h14.3c0.5,0,0.9,0.4,0.9,0.9
		C156.8,11,156.4,11.4,155.9,11.4z M165.8,34.7v-4c0-0.2,0.2-0.4,0.4-0.4h2.2c0.2,0,0.4,0.2,0.4,0.4c0,0.2-0.2,0.4-0.4,0.4h-1.8v1.2
		h1.6c0.2,0,0.4,0.2,0.4,0.4c0,0.2-0.2,0.4-0.4,0.4h-1.6v1.2h1.8c0.2,0,0.4,0.2,0.4,0.4c0,0.2-0.2,0.4-0.4,0.4h-2.2
		C166,35.1,165.8,34.9,165.8,34.7z M162.6,35.1c-1.1,0-2-0.9-2-1.9v-2.4c0-0.2,0.2-0.4,0.4-0.4c0.2,0,0.4,0.2,0.4,0.4v2.4
		c0.1,1.5,2.3,1.5,2.4,0v-2.4c0-0.5,0.8-0.5,0.8,0v2.4C164.6,34.2,163.7,35.1,162.6,35.1z M155,32.7c0-1.4,1.1-2.5,2.5-2.4
		c0.6,0,1.1,0.2,1.5,0.5c0.2,0.1,0.2,0.4,0.1,0.6c-0.1,0.2-0.4,0.2-0.6,0c-0.3-0.2-0.7-0.4-1.1-0.4c-0.5,0-0.9,0.2-1.2,0.5
		c-0.7,0.6-0.7,1.7,0,2.3c0.3,0.3,0.8,0.5,1.2,0.5c0.3,0,0.6-0.1,0.9-0.3v-0.9h-1c-0.2,0-0.4-0.2-0.4-0.4c0-0.2,0.2-0.4,0.4-0.4h1.3
		c0.2,0,0.4,0.2,0.4,0.4v1.6c0,0.1-0.1,0.1-0.1,0.2c-0.4,0.3-1,0.5-1.5,0.5C156.1,35.1,155,34,155,32.7z M153.1,32.7
		c0-0.4-0.2-0.9-0.5-1.2c-0.3-0.3-0.7-0.5-1.1-0.5c-0.4,0-0.8,0.2-1.1,0.5c-0.3,0.3-0.5,0.7-0.5,1.2c0,0.4,0.2,0.9,0.5,1.2
		c0.3,0.3,0.7,0.5,1.1,0.5c0.4,0,0.8-0.2,1.1-0.5C152.9,33.5,153.1,33.1,153.1,32.7L153.1,32.7z M153.2,31c0.9,1,0.9,2.5,0,3.4
		c-0.4,0.5-1,0.7-1.6,0.8c-0.6,0-1.2-0.3-1.7-0.8c-0.9-1-0.9-2.5,0-3.4c0.4-0.5,1-0.7,1.7-0.8C152.2,30.2,152.8,30.5,153.2,31z
		 M145.9,34.7v-4c0-0.5,0.8-0.5,0.8,0v3.6h1.8c0.2,0,0.4,0.2,0.4,0.4c0,0.2-0.2,0.4-0.4,0.4h-2.2C146.1,35.1,145.9,34.9,145.9,34.7z
		 M143.7,33.2l-0.6-1.4l-0.5,1.4H143.7z M144,34h-1.6l-0.3,0.9c-0.1,0.1-0.2,0.2-0.3,0.2c0,0-0.1,0-0.1,0c-0.2-0.1-0.3-0.3-0.2-0.5
		l1.5-4c0.1-0.4,0.6-0.4,0.8,0l1.5,4c0.1,0.2,0,0.4-0.2,0.5c0,0-0.1,0-0.1,0c-0.2,0-0.3-0.1-0.3-0.2L144,34z M140.7,31.1h-1.1v3.6
		c0,0.2-0.2,0.4-0.4,0.4c-0.2,0-0.4-0.2-0.4-0.4v-3.6h-1.1c-0.2,0-0.4-0.2-0.4-0.4c0-0.2,0.2-0.4,0.4-0.4h2.9c0.2,0,0.4,0.2,0.4,0.4
		C141.1,30.9,140.9,31.1,140.7,31.1z M136.3,33.2l-0.6-1.4l-0.5,1.4H136.3z M136.5,34h-1.6l-0.3,0.9c-0.1,0.1-0.2,0.2-0.3,0.2
		c0,0-0.1,0-0.1,0c-0.2-0.1-0.3-0.3-0.2-0.5l1.5-4c0.1-0.3,0.6-0.3,0.7,0l1.5,4c0.1,0.2,0,0.4-0.2,0.5c0,0-0.1,0-0.1,0
		c-0.1,0-0.3-0.1-0.3-0.2L136.5,34z M128.8,32.7c0-1.3,1.1-2.4,2.5-2.4c0.6,0,1.1,0.2,1.6,0.5c0.2,0.1,0.2,0.4,0.1,0.5
		c-0.1,0.2-0.4,0.2-0.5,0.1c-0.3-0.2-0.7-0.4-1.1-0.4c-0.5,0-0.9,0.2-1.2,0.5c-0.3,0.3-0.5,0.7-0.5,1.2c0,0.4,0.2,0.9,0.5,1.2
		c0.3,0.3,0.8,0.5,1.2,0.5c0.4,0,0.8-0.1,1.1-0.4c0.2-0.1,0.4-0.1,0.5,0.1c0.1,0.2,0.1,0.4-0.1,0.5c-0.4,0.3-1,0.5-1.6,0.5
		C129.9,35.1,128.8,34,128.8,32.7z M204.5,29l4,3.8l-4,3.8l-0.6-0.7l3.3-3.1l-3.3-3.1L204.5,29z M92.9,36.6l-4-3.8l4-3.8l0.6,0.7
		l-3.3,3.1l3.3,3.1L92.9,36.6z M206.7,13.8h0.7v1.8h-0.7V13.8z M200,13.5h4.8v2.2H200V13.5z"/>
	<rect x="92.8" y="237.4" class="st2" width="50.6" height="41"/>
	<path class="st3" d="M92.8,161.6h50.6v50.6H92.8V161.6z M154,237.4h50.6v41H154V237.4z"/>
	<rect x="154" y="161.6" class="st2" width="50.6" height="50.6"/>
	<rect x="154" y="85.8" class="st3" width="50.6" height="50.6"/>
	<path class="st2" d="M92.8,141.3h5.5v5.5h-5.5V141.3z M92.8,85.8h50.6v50.6H92.8V85.8z"/>
	<rect x="100.6" y="141.3" class="st4" width="5.5" height="5.5"/>
	<rect x="108.3" y="141.3" class="st5" width="5.5" height="5.5"/>
	<rect x="116" y="141.3" class="st6" width="5.5" height="5.5"/>
	<rect x="154" y="141.3" class="st2" width="5.5" height="5.5"/>
	<rect x="161.8" y="141.3" class="st4" width="5.5" height="5.5"/>
	<rect x="169.5" y="141.3" class="st5" width="5.5" height="5.5"/>
	<path class="st6" d="M174.1,152.8c-0.1,0.5,0.4,1,0.9,1c0.5,0,0.9-0.4,0.9-1C175.7,151.7,174.2,151.7,174.1,152.8z M173.3,152.8
		c0.1-2,3-2.2,3.3-0.2v0.4c0,0.5-0.1,0.9-0.2,1.4c-0.2,0.5-0.5,0.9-0.9,1.2c-0.3,0.2-0.6,0.3-1,0.3c-0.5,0-0.5-0.8,0-0.8
		c0.2,0,0.4-0.1,0.6-0.2c0.2-0.1,0.3-0.3,0.4-0.5c0-0.1,0.1-0.1,0.1-0.2c-0.2,0.1-0.4,0.1-0.6,0.1
		C174.1,154.4,173.3,153.7,173.3,152.8z M169.7,152.8c0,0.5,0.4,0.9,0.9,0.9c0.5,0,0.9-0.4,0.9-0.9c0-0.5-0.4-0.9-0.9-0.9
		C170.1,151.9,169.7,152.3,169.7,152.8z M169,152.8c0.1-2,3-2.2,3.3-0.2v0.4c0,0.5-0.1,0.9-0.2,1.4c-0.2,0.5-0.5,0.9-0.9,1.2
		c-0.3,0.2-0.7,0.3-1,0.3c-0.2,0-0.4-0.2-0.4-0.4c0-0.2,0.2-0.4,0.4-0.4c0.2,0,0.4-0.1,0.6-0.2c0.2-0.1,0.3-0.3,0.4-0.5l0.1-0.2
		c-0.2,0.1-0.4,0.1-0.7,0.1C169.7,154.4,169,153.7,169,152.8z M168,154.9c0.3,0,0.5,0.2,0.5,0.5c0,0.3-0.2,0.5-0.5,0.5
		C167.4,155.9,167.4,154.9,168,154.9z M163.9,152.8c0,1.2,1.8,1.2,1.8,0C165.7,151.6,163.9,151.6,163.9,152.8z M163.2,152.8
		c0-2.1,3.1-2.2,3.3-0.2v0.4c0,0.5-0.1,0.9-0.2,1.4c-0.2,0.5-0.5,0.9-0.9,1.2c-0.3,0.2-0.7,0.3-1,0.3c-0.5,0-0.5-0.8,0-0.8
		c0.2,0,0.4-0.1,0.6-0.2c0.2-0.1,0.3-0.3,0.4-0.5c0-0.1,0.1-0.1,0.1-0.2c-0.2,0.1-0.4,0.1-0.7,0.1
		C163.9,154.4,163.2,153.7,163.2,152.8z M161.2,152.6l-1.3,1.7h1.3V152.6z M162.4,154.6c0,0.2-0.2,0.4-0.4,0.4h-0.1v0.5
		c0,0.2-0.2,0.4-0.4,0.4c-0.2,0-0.4-0.2-0.4-0.4V155H159c-0.1,0-0.2,0-0.2-0.1c-0.2-0.1-0.2-0.4-0.1-0.5l2.5-3.1h0c0,0,0,0,0,0h0.3
		v2.9h0.1C162,153.6,162.7,154.1,162.4,154.6z M156.6,154v1.2c0.4-0.1,0.7-0.3,0.7-0.6C157.2,154.3,157.1,154.1,156.6,154L156.6,154
		z M156,153v-1.2c-0.4,0-0.6,0.3-0.6,0.6S155.5,152.8,156,153z M156.3,150.7c0.2,0,0.3,0.1,0.3,0.3v0.1c0.4,0,0.7,0.2,1,0.4
		c0.1,0.1,0.2,0.2,0.2,0.3c0,0.2-0.2,0.4-0.4,0.4c-0.1,0-0.1,0-0.2-0.1c-0.2-0.1-0.5-0.2-0.7-0.3v1.3c1,0.3,1.5,0.7,1.5,1.4
		s-0.6,1.2-1.4,1.3v0.4c0,0.2-0.1,0.3-0.3,0.3c-0.2,0-0.3-0.1-0.3-0.3v-0.4c-0.5-0.1-1-0.2-1.4-0.5c-0.1-0.1-0.2-0.2-0.2-0.3
		c0-0.2,0.2-0.4,0.4-0.4c0.1,0,0.2,0,0.2,0.1c0.3,0.2,0.6,0.4,1,0.4v-1.3c-1-0.3-1.4-0.6-1.4-1.4c0-0.7,0.7-1.3,1.4-1.3V151
		C156.1,150.8,156.2,150.7,156.3,150.7z M112.5,152.8c0,0.5,0.4,1,0.9,1c0.5,0,0.9-0.4,0.9-1C114.2,151.7,112.6,151.7,112.5,152.8z
		 M111.8,152.8c0.1-2,3-2.2,3.3-0.2v0.4c0,0.5-0.1,0.9-0.2,1.4c-0.2,0.5-0.5,0.9-0.9,1.2c-0.3,0.2-0.7,0.3-1,0.3
		c-0.2,0-0.4-0.2-0.4-0.4c0-0.2,0.2-0.4,0.4-0.4c0.2,0,0.4-0.1,0.6-0.2c0.2-0.1,0.3-0.3,0.4-0.5c0-0.1,0.1-0.1,0.1-0.2
		c-0.2,0.1-0.4,0.1-0.6,0.1C112.5,154.4,111.8,153.7,111.8,152.8z M108.2,152.8c0,0.5,0.4,1,0.9,1c0.5,0,0.9-0.4,0.9-1
		C109.9,151.7,108.3,151.7,108.2,152.8z M107.4,152.8c0.1-2,3-2.2,3.3-0.2v0.4c0,0.5-0.1,0.9-0.2,1.4c-0.2,0.5-0.5,0.9-0.9,1.2
		c-0.3,0.2-0.7,0.3-1,0.3c-0.2,0-0.3-0.2-0.4-0.4c0-0.2,0.2-0.4,0.4-0.4c0.2,0,0.4-0.1,0.6-0.2c0.2-0.1,0.3-0.3,0.4-0.5l0.1-0.2
		c-0.2,0.1-0.4,0.1-0.7,0.1C108.2,154.4,107.4,153.7,107.4,152.8z M106.5,154.9c0.7,0,0.7,1,0,1
		C105.8,155.9,105.8,154.9,106.5,154.9z M102.4,152.8c0,1.2,1.8,1.2,1.8,0C104.1,151.6,102.4,151.6,102.4,152.8z M101.6,152.8
		c0-2.1,3.1-2.2,3.3-0.2v0.4c0,0.5-0.1,0.9-0.2,1.4c-0.2,0.5-0.5,0.9-0.9,1.2c-0.3,0.2-0.6,0.3-1,0.3c-0.2,0-0.4-0.2-0.4-0.4
		c0-0.2,0.2-0.4,0.4-0.4c0.2,0,0.4-0.1,0.6-0.2c0.2-0.1,0.3-0.3,0.4-0.5c0-0.1,0.1-0.1,0.1-0.2c-0.2,0.1-0.4,0.1-0.7,0.1
		C102.3,154.4,101.6,153.7,101.6,152.8z M100.1,153c0.3,0.3,0.5,0.7,0.5,1.2c0,0.4-0.2,0.9-0.5,1.2c-0.3,0.3-0.7,0.5-1.2,0.5
		c-0.4,0-0.9-0.2-1.2-0.5c-0.1-0.2-0.1-0.4,0-0.5c0.1-0.1,0.4-0.1,0.5,0c0.4,0.4,0.9,0.4,1.3,0c0.2-0.2,0.3-0.4,0.3-0.7
		c0-0.2-0.1-0.5-0.3-0.6c-0.2-0.2-0.4-0.3-0.6-0.3c-0.1,0-0.2,0-0.3-0.1c-0.1-0.1-0.1-0.4,0-0.5l0.7-0.7h-1.1
		c-0.2,0-0.4-0.2-0.4-0.4c0-0.2,0.2-0.4,0.4-0.4h2c0.2,0,0.4,0.2,0.4,0.4c0,0.1,0,0.1,0,0.2l-0.1,0.1l-0.9,0.9
		C99.8,152.8,100,152.9,100.1,153z M95.4,154v1.2c0.4-0.1,0.7-0.3,0.7-0.6C96,154.3,95.9,154.1,95.4,154L95.4,154z M94.8,153v-1.2
		c-0.4,0-0.6,0.3-0.6,0.6S94.3,152.8,94.8,153z M95.1,150.7c0.2,0,0.3,0.1,0.3,0.3v0.1c0.4,0,0.7,0.2,1,0.4c0.1,0.1,0.2,0.2,0.2,0.3
		c0,0.2-0.2,0.4-0.4,0.4c-0.1,0-0.1,0-0.2-0.1c-0.2-0.1-0.5-0.2-0.7-0.3v1.3c1,0.3,1.5,0.7,1.5,1.4s-0.6,1.2-1.4,1.3v0.4
		c0,0.2-0.1,0.3-0.3,0.3c-0.2,0-0.3-0.1-0.3-0.3v-0.4c-0.5-0.1-1-0.2-1.4-0.5c-0.1-0.1-0.2-0.2-0.2-0.3c0-0.2,0.2-0.4,0.4-0.4
		c0.1,0,0.2,0,0.2,0.1c0.3,0.2,0.6,0.4,1,0.4v-1.3c-1-0.3-1.4-0.6-1.4-1.4c0-0.7,0.7-1.3,1.4-1.3V151
		C94.8,150.8,95,150.7,95.1,150.7z M177.2,141.3h5.5v5.5h-5.5V141.3z"/>
	<path class="st4" d="M197.2,195.6c-0.8,0.2-34.9-0.1-35.4-0.4c-0.5-0.3-0.7-5.4-0.8-11.1v-0.2c0-0.1,0-0.1,0-0.2l21.3,0v0.4
		c0,0,12.6,5.8,13.8,6.8C197.4,191.9,198.3,195.2,197.2,195.6z"/>
	<path class="st6" d="M187.8,185.6c-2.2-0.4-4.9-0.1-6.6,1.4c-0.1,0.1,0,0.2,0.1,0.1c2.1-0.6,4.3-1.1,6.5-1.3
		C187.9,185.9,187.9,185.7,187.8,185.6z M186.2,184.7c-2.2-0.4-4.9-0.1-6.6,1.4c-0.1,0.1,0,0.1,0.1,0.1c2.1-0.6,4.3-1.1,6.5-1.2
		C186.4,184.9,186.4,184.7,186.2,184.7z M184.6,183.7c-2.2-0.4-4.9-0.1-6.6,1.4c-0.1,0.1,0,0.2,0.1,0.1c2.1-0.6,4.3-1.1,6.5-1.3
		C184.8,183.9,184.8,183.7,184.6,183.7z M196.8,194.3c-5.6-0.2-28-0.5-33.5-0.3c0,0,0,0,0,0C168.8,194.3,191.3,194.4,196.8,194.3
		C196.9,194.4,196.9,194.3,196.8,194.3z"/>
	<path class="st6" d="M187.1,180.3c-0.2,1.3-2.4,2.1-3.4,2.5c-0.7,0.3-1.4,0.5-2.1,0.8l-0.4,0.2l-0.1,0.1l0.1-0.1l0-0.1
		c0.6-0.9,1.2-1.8,1.9-2.6c0.4-0.4,0.8-0.9,1.2-1.2C184.9,179.1,187.5,177.9,187.1,180.3z M187.6,178.9c-0.8-1.2-2.5-0.7-3.4,0.1
		c-1.4,1.2-2.5,2.7-3.2,4.4l-0.1,0.2c0,0,0,0.1,0,0.1v0c0,0.1-0.1,0.1-0.1,0.2c0,0,0,0.1,0.1,0.1c0,0.1,0.1,0.2,0.1,0.3
		c0.1,0,0.1,0,0.2,0c0.4-0.1,0.8-0.3,1.1-0.4l1.3-0.4c1.1-0.3,2.1-0.8,3-1.5C187.4,181.4,188.4,180.1,187.6,178.9z"/>
	<path class="st6" d="M180.8,183.8h-0.1c-0.4-0.1-0.8-0.1-1.2-0.2l-1.4-0.2c-1.1-0.2-3.4-0.4-3.9-1.7c-1-2.2,1.9-1.6,2.6-1.2
		c0.5,0.3,1,0.6,1.4,0.9c0.9,0.7,1.7,1.4,2.5,2.1L180.8,183.8l0.1,0L180.8,183.8z M181.3,183.9l-0.1-0.2c0,0,0-0.1-0.1-0.1l0-0.1
		c0-0.1-0.1-0.1-0.1-0.2c-1.1-1.5-2.5-2.7-4.2-3.6c-1.1-0.5-2.8-0.7-3.3,0.7c-0.5,1.4,0.7,2.3,1.7,2.8c0.2,0.1,0.4,0.2,0.6,0.2
		c1.2,0.4,2.4,0.6,3.6,0.6c0.5,0,1,0.1,1.5,0.1h0c0.2,0,0.3-0.2,0.3-0.3C181.3,184,181.3,183.9,181.3,183.9z"/>
	<rect x="92.8" y="217.1" class="st2" width="5.5" height="5.5"/>
	<rect x="100.6" y="217.1" class="st4" width="5.5" height="5.5"/>
	<rect x="108.3" y="217.1" class="st5" width="5.5" height="5.5"/>
	<rect x="116" y="217.1" class="st6" width="5.5" height="5.5"/>
	<rect x="154" y="217.1" class="st7" width="5.5" height="5.5"/>
	<rect x="161.8" y="217.1" class="st4" width="5.5" height="5.5"/>
	<rect x="169.5" y="217.1" class="st5" width="5.5" height="5.5"/>
	<path class="st6" d="M173.7,228.6c0,0.5,0.4,1,0.9,1c0.5,0,0.9-0.5,0.9-1C175.4,227.5,173.8,227.5,173.7,228.6z M173,228.6
		c0.1-2,3-2.2,3.3-0.2v0.4c0,0.5-0.1,0.9-0.2,1.4c-0.2,0.5-0.5,0.9-0.9,1.1c-0.3,0.2-0.7,0.3-1,0.3c-0.2,0-0.4-0.2-0.4-0.4
		c0-0.2,0.2-0.4,0.4-0.4c0.2,0,0.4-0.1,0.6-0.2c0.2-0.1,0.3-0.3,0.4-0.5c0-0.1,0.1-0.1,0.1-0.2c-0.2,0.1-0.4,0.1-0.6,0.1
		C173.7,230.2,173,229.5,173,228.6z M169.4,228.6c0,0.5,0.4,1,0.9,1c0.5,0,0.9-0.5,0.9-1C171.1,227.5,169.5,227.5,169.4,228.6z
		 M168.6,228.6c0.1-2,3-2.2,3.3-0.2v0.4c0,0.5-0.1,0.9-0.2,1.4c-0.2,0.5-0.5,0.9-0.9,1.1c-0.3,0.2-0.6,0.3-1,0.3
		c-0.2,0-0.4-0.2-0.4-0.4c0-0.2,0.2-0.4,0.4-0.4c0.2,0,0.4-0.1,0.6-0.2c0.2-0.1,0.3-0.3,0.4-0.5l0.1-0.2c-0.2,0.1-0.4,0.1-0.7,0.1
		C169.4,230.2,168.7,229.5,168.6,228.6z M167.7,230.7c0.3,0,0.5,0.2,0.5,0.5c0,0.3-0.2,0.5-0.5,0.5C167,231.7,167,230.7,167.7,230.7
		z M163.6,228.6c0,0.5,0.4,0.9,0.9,0.9c0.8,0,1.2-1,0.6-1.5C164.5,227.4,163.6,227.8,163.6,228.6z M162.8,228.6c0.1-2,3-2.2,3.3-0.2
		v0.4c0,0.5-0.1,0.9-0.2,1.4c-0.2,0.5-0.5,0.9-0.9,1.1c-0.3,0.2-0.6,0.3-1,0.3c-0.2,0-0.4-0.2-0.4-0.4c0-0.2,0.2-0.4,0.4-0.4
		c0.2,0,0.4-0.1,0.6-0.2c0.2-0.1,0.3-0.3,0.4-0.5c0-0.1,0.1-0.1,0.1-0.2c-0.2,0.1-0.4,0.1-0.7,0.1
		C163.6,230.2,162.8,229.5,162.8,228.6z M161.3,228.8c0.3,0.3,0.5,0.7,0.5,1.2c0,0.4-0.2,0.9-0.5,1.2c-0.3,0.3-0.7,0.5-1.2,0.5
		c-0.4,0-0.9-0.2-1.2-0.5c-0.1-0.2-0.1-0.4,0-0.5c0.1-0.1,0.4-0.1,0.5,0c0.2,0.2,0.4,0.3,0.6,0.3c0.2,0,0.5-0.1,0.6-0.3
		c0.2-0.2,0.3-0.4,0.3-0.6c0-0.2-0.1-0.5-0.3-0.6c-0.2-0.2-0.4-0.3-0.6-0.3c-0.1,0-0.2,0-0.3-0.1c-0.1-0.1-0.1-0.4,0-0.5l0.7-0.7
		h-1.1c-0.4-0.1-0.4-0.7,0-0.8h2c0.2,0,0.4,0.2,0.4,0.4c0,0.1,0,0.1,0,0.2l-0.1,0.1l-0.9,0.9C161,228.6,161.2,228.7,161.3,228.8z
		 M156.6,229.8v1.2c0.4-0.1,0.7-0.3,0.7-0.6C157.2,230.1,157.1,229.9,156.6,229.8z M156,228.8v-1.2c-0.4,0-0.6,0.3-0.6,0.6
		S155.5,228.7,156,228.8z M156.3,226.5c0.2,0,0.3,0.1,0.3,0.3v0.1c0.4,0,0.7,0.2,1,0.4c0.1,0.1,0.2,0.2,0.2,0.3
		c0,0.2-0.2,0.4-0.4,0.4c-0.1,0-0.1,0-0.2-0.1c-0.2-0.1-0.5-0.2-0.7-0.3v1.3c1,0.3,1.5,0.7,1.5,1.4s-0.6,1.2-1.4,1.3v0.4
		c0,0.2-0.1,0.3-0.3,0.3c-0.2,0-0.3-0.1-0.3-0.3v-0.4c-0.5-0.1-1-0.2-1.4-0.5c-0.1-0.1-0.2-0.2-0.2-0.3c0-0.2,0.2-0.4,0.4-0.4
		c0.1,0,0.2,0,0.2,0.1c0.3,0.2,0.6,0.4,1,0.5v-1.3c-1-0.3-1.4-0.6-1.4-1.4c0-0.8,0.7-1.3,1.4-1.3v-0.1
		C156,226.7,156.2,226.5,156.3,226.5z M112.5,228.6c0,0.5,0.4,1,0.9,1c0.5,0,0.9-0.5,0.9-1C114.2,227.5,112.6,227.5,112.5,228.6z
		 M111.8,228.6c0.1-2,3-2.2,3.3-0.2v0.4c0,0.5-0.1,0.9-0.2,1.4c-0.2,0.5-0.5,0.9-0.9,1.1c-0.3,0.2-0.7,0.3-1,0.3
		c-0.2,0-0.4-0.2-0.4-0.4c0-0.2,0.2-0.4,0.4-0.4c0.2,0,0.4-0.1,0.6-0.2c0.2-0.1,0.3-0.3,0.4-0.5c0-0.1,0.1-0.1,0.1-0.2
		c-0.2,0.1-0.4,0.1-0.6,0.1C112.5,230.2,111.8,229.5,111.8,228.6z M108.2,228.6c0,0.5,0.4,1,0.9,1c0.5,0,0.9-0.5,0.9-1
		C109.9,227.5,108.3,227.5,108.2,228.6z M107.4,228.6c0.1-2,3-2.2,3.3-0.2v0.4c0,0.5-0.1,0.9-0.2,1.4c-0.2,0.5-0.5,0.9-0.9,1.1
		c-0.3,0.2-0.7,0.3-1,0.3c-0.2,0-0.4-0.2-0.4-0.4c0-0.2,0.2-0.4,0.4-0.4c0.2,0,0.4-0.1,0.6-0.2c0.2-0.1,0.3-0.3,0.4-0.5l0.1-0.2
		c-0.2,0.1-0.4,0.1-0.7,0.1C108.2,230.2,107.4,229.5,107.4,228.6z M106.5,230.7c0.3,0,0.5,0.2,0.5,0.5c0,0.3-0.2,0.5-0.5,0.5
		C105.8,231.7,105.8,230.7,106.5,230.7z M102.4,228.6c0,1.2,1.8,1.2,1.8,0S102.4,227.4,102.4,228.6z M101.6,228.6
		c0-2.1,3.1-2.2,3.3-0.2v0.4c0,0.5-0.1,0.9-0.2,1.4c-0.2,0.5-0.5,0.9-0.9,1.1c-0.3,0.2-0.6,0.3-1,0.3c-0.2,0-0.4-0.2-0.4-0.4
		c0-0.2,0.2-0.4,0.4-0.4c0.2,0,0.4-0.1,0.6-0.2c0.2-0.1,0.3-0.3,0.4-0.5c0-0.1,0.1-0.1,0.1-0.2c-0.2,0.1-0.4,0.1-0.7,0.1
		C102.4,230.2,101.6,229.5,101.6,228.6z M100.1,228.8c0.3,0.3,0.5,0.7,0.5,1.2c0,0.4-0.2,0.9-0.5,1.2c-0.3,0.3-0.7,0.5-1.2,0.5
		c-0.4,0-0.9-0.2-1.2-0.5c-0.1-0.2-0.1-0.4,0-0.5c0.1-0.1,0.4-0.1,0.5,0c0.4,0.4,0.9,0.4,1.3,0c0.2-0.2,0.3-0.4,0.3-0.6
		c0-0.2-0.1-0.5-0.3-0.6c-0.2-0.2-0.4-0.3-0.6-0.3c-0.1,0-0.2,0-0.3-0.1c-0.1-0.1-0.1-0.4,0-0.5l0.7-0.7h-1.1
		c-0.4-0.1-0.4-0.7,0-0.8h2c0.2,0,0.4,0.2,0.4,0.4c0,0.1,0,0.1,0,0.2l-0.1,0.1l-0.9,0.9C99.8,228.6,100,228.7,100.1,228.8z
		 M95.4,229.8v1.2c0.4-0.1,0.7-0.3,0.7-0.6C96,230.1,95.9,229.9,95.4,229.8z M94.8,228.8v-1.2c-0.4,0-0.6,0.3-0.6,0.6
		S94.3,228.7,94.8,228.8z M95.1,226.5c0.2,0,0.3,0.1,0.3,0.3v0.1c0.4,0.1,0.7,0.2,1,0.4c0.1,0.1,0.2,0.2,0.2,0.3
		c0,0.2-0.2,0.4-0.4,0.4c-0.1,0-0.1,0-0.2-0.1c-0.2-0.1-0.5-0.2-0.7-0.3v1.3c1,0.3,1.5,0.7,1.5,1.4s-0.6,1.2-1.4,1.3v0.4
		c0,0.2-0.1,0.3-0.3,0.3c-0.2,0-0.3-0.1-0.3-0.3v-0.4c-0.5-0.1-1-0.2-1.4-0.5c-0.1-0.1-0.2-0.2-0.2-0.3c0-0.2,0.2-0.4,0.4-0.4
		c0.1,0,0.2,0,0.2,0.1c0.3,0.2,0.6,0.4,1,0.5v-1.3c-1-0.3-1.4-0.6-1.4-1.4c0-0.8,0.7-1.3,1.4-1.3v-0.1
		C94.8,226.7,94.9,226.5,95.1,226.5z M177.2,217.1h5.5v5.5h-5.5V217.1z"/>
	<rect x="80.5" y="44.6" class="st8" width="136.4" height="27.9"/>
	<path class="st1" d="M161.6,60.3c0.2-0.2,0.6-0.3,0.8-0.1c0.6,0.5,1.4,0.8,2.1,0.9c0.5,0,1-0.1,1.4-0.4c0.3-0.2,0.5-0.5,0.5-0.8
		c0-0.1,0-0.3-0.1-0.4c-0.1-0.1-0.2-0.2-0.3-0.3c-0.5-0.3-1-0.4-1.5-0.5c-0.5-0.1-1-0.2-1.4-0.4c-0.4-0.2-0.8-0.5-1.1-0.9
		c-0.2-0.3-0.3-0.6-0.3-0.9c0-0.7,0.4-1.3,0.9-1.6c0.6-0.4,1.2-0.6,1.9-0.6c0.9,0,1.7,0.4,2.5,0.9c0.3,0.2,0.3,0.5,0.2,0.8
		c-0.2,0.3-0.5,0.3-0.8,0.2c-0.5-0.4-1.1-0.7-1.8-0.8c-0.4,0-0.9,0.1-1.3,0.4c-0.3,0.2-0.4,0.4-0.4,0.8c0,0.1,0,0.2,0.1,0.3
		c0.1,0.1,0.2,0.2,0.3,0.3c0.4,0.3,0.9,0.4,1.4,0.5c0.5,0.1,1.1,0.2,1.6,0.5c0.5,0.2,0.8,0.5,1.1,0.9c0.2,0.3,0.3,0.6,0.3,1
		c0,0.7-0.4,1.4-1,1.8c-0.6,0.4-1.3,0.6-2.1,0.6c-1.1,0-2.1-0.4-2.9-1.1C161.4,60.9,161.4,60.6,161.6,60.3z M155.2,61.7V55
		c0-0.3,0.3-0.6,0.6-0.6h3.7c0.3,0,0.6,0.3,0.6,0.6c0,0.3-0.3,0.6-0.6,0.6h-3.1v2.1h2.6c0.3,0,0.6,0.3,0.6,0.6
		c0,0.3-0.3,0.6-0.6,0.6h-2.6V61h3.1c0.8,0.1,0.8,1.2,0,1.3h-3.6C155.5,62.3,155.2,62,155.2,61.7z M151.7,58.2c0-0.7-0.3-1.4-0.8-2
		c-1-1.1-2.6-1.1-3.6,0c-0.5,0.5-0.8,1.2-0.8,2c0,0.7,0.3,1.4,0.8,2c1,1.1,2.6,1.1,3.6,0C151.4,59.7,151.7,59,151.7,58.2z
		 M151.8,55.4c0.7,0.8,1.1,1.8,1.1,2.8c0,1.1-0.4,2.1-1.1,2.8c-0.7,0.8-1.7,1.2-2.7,1.2c-1,0-2-0.4-2.8-1.2
		c-0.7-0.8-1.1-1.8-1.1-2.8c0-1.1,0.4-2.1,1.1-2.8c0.7-0.8,1.7-1.2,2.8-1.2C150.1,54.2,151.1,54.6,151.8,55.4z M138,61.7V55
		c0-0.3,0.3-0.6,0.6-0.6c0.3,0,0.6,0.3,0.6,0.6v2.7h2.9V55c0-0.3,0.3-0.6,0.6-0.6c0.3,0,0.6,0.3,0.6,0.6v6.6c0,0.3-0.3,0.6-0.6,0.6
		c-0.3,0-0.6-0.3-0.6-0.6V59h-2.9v2.7c0,0.3-0.3,0.6-0.6,0.6C138.2,62.3,138,62,138,61.7z M130.2,60.3c0.2-0.2,0.6-0.3,0.8-0.1
		c0.6,0.5,1.4,0.8,2.1,0.9c0.5,0,1-0.1,1.4-0.4c0.3-0.2,0.5-0.5,0.5-0.8c0-0.1,0-0.3-0.1-0.4c-0.1-0.1-0.2-0.2-0.3-0.3
		c-0.5-0.3-1-0.4-1.5-0.5c-0.5-0.1-1-0.2-1.4-0.4c-0.4-0.2-0.8-0.5-1.1-0.9c-0.2-0.3-0.3-0.6-0.3-0.9c0-0.7,0.4-1.3,0.9-1.6
		c0.6-0.4,1.2-0.6,1.9-0.6c0.9,0,1.7,0.4,2.4,0.9c0.3,0.2,0.3,0.5,0.2,0.8c-0.2,0.3-0.5,0.3-0.8,0.2c-0.5-0.4-1.1-0.7-1.8-0.8
		c-0.5,0-0.9,0.1-1.3,0.4c-0.3,0.2-0.4,0.4-0.4,0.8c0,0.1,0,0.2,0.1,0.3c0.1,0.1,0.2,0.2,0.3,0.3c0.4,0.3,0.9,0.4,1.4,0.5
		c0.5,0.1,1.1,0.2,1.6,0.5c0.5,0.2,0.8,0.5,1.1,0.9c0.2,0.3,0.3,0.6,0.3,1c0,0.7-0.4,1.4-1,1.8c-0.6,0.4-1.3,0.6-2.1,0.6
		c-1.1,0-2.1-0.4-2.9-1.1C130.1,60.9,130,60.6,130.2,60.3z"/>
	<path class="st4" d="M136.2,119.7c-1.2,0.4-34.6,0.5-35.9-0.3c-0.5-0.3-0.9-5.8-0.4-11.5l21.6,0.2c0,0,12.4,5.8,13.6,6.9
		S137.3,119.3,136.2,119.7z"/>
	<path class="st1" d="M136.7,119c0,0.3-0.2,0.6-0.5,0.8c-1.2,0.4-34.6,0.5-35.9-0.3c-0.2-0.3-0.3-0.7-0.3-1h28.3
		c0.2-1.2,0.7-2.4,1.6-3.3c0.9-0.8,2-1.3,3.1-1.3c0.7,0.4,1.4,0.8,2.1,1.2c0.9,0.9,1.5,2.1,1.6,3.4
		C136.7,118.5,136.7,118.8,136.7,119z"/>
	<path class="st6" d="M128.3,110.7c-2.2,0-4.9,0.8-6.3,2.6c-0.1,0.1,0,0.1,0.1,0.1c2-1,4-1.8,6.2-2.4
		C128.5,110.9,128.5,110.7,128.3,110.7z M126.6,110c-2.2,0-4.9,0.8-6.3,2.6c-0.1,0.1,0.1,0.1,0.1,0.1c2-1,4-1.8,6.2-2.4
		C126.8,110.2,126.7,110,126.6,110z M124.9,109.3c-2.2-0.1-4.9,0.8-6.3,2.5c-0.1,0.1,0,0.2,0.1,0.1c2-1,4-1.8,6.2-2.4
		C125,109.5,125,109.3,124.9,109.3z M123.1,108.6c-2.2,0-4.9,0.8-6.3,2.6c-0.1,0.1,0,0.1,0.1,0.1c2-1,4-1.8,6.2-2.4
		C123.3,108.8,123.3,108.6,123.1,108.6z M132.9,113.7c-1.3,0-2.5,0.4-3.4,1.3c-0.8,0.8-1.3,1.9-1.3,3h0.1
		C128.7,115.8,130.6,114,132.9,113.7C132.9,113.8,132.9,113.7,132.9,113.7z M135.7,118.4c-5.6-0.2-28.2-0.4-33.8-0.1c0,0,0,0,0,0
		C107.4,118.5,130.1,118.5,135.7,118.4C135.8,118.4,135.8,118.4,135.7,118.4z"/>
	<path class="st1" d="M103.4,112c-2.5,0-2.5,3.9,0,3.9C105.9,115.9,105.9,112,103.4,112z"/>
	<path class="st6" d="M122.8,107.4c-0.4,0.3-0.8,0.5-1.1,0.8c-0.4,0.2-0.7,0.5-1,0.7l-0.1,0.1l-0.1,0.1l0-0.1l0.3-0.9
		c0.3-0.8,0.6-1.5,0.9-2.3c0.2-0.5,0.5-1,0.8-1.5c0.5-0.8,2.7-2.6,2.9-0.2C125.6,105.4,123.7,106.7,122.8,107.4z M125.6,102.6
		c-1.1-1-2.6,0-3.3,0.9c-0.9,1.3-1.6,2.9-1.9,4.5c-0.1,0.2-0.1,0.4-0.1,0.7c0,0.1,0,0.2,0,0.3c0,0,0,0.1,0,0.1v0.2
		c0,0.1,0,0.1,0.1,0.1c0,0.1,0.1,0.2,0.2,0.2c0.1,0,0.1,0,0.2,0c0.4-0.3,0.9-0.6,1.4-0.9l0.2-0.2c1.2-0.7,2.2-1.5,3.1-2.6
		C126.1,105,126.7,103.5,125.6,102.6z"/>
	<path class="st6" d="M117.6,109.4c-1.1,0.1-3.4,0.5-4.2-0.6c-0.2-0.2-0.4-0.5-0.4-0.8c-0.2-1.1,1.9-1.2,2.7-1
		c0.6,0.1,1.1,0.3,1.7,0.5c0.4,0.2,0.8,0.3,1.2,0.5c0.6,0.3,1.3,0.6,1.9,1l0.1,0.1H120C119.1,109.2,118.4,109.3,117.6,109.4z
		 M120.7,109.2C120.8,109.1,120.8,109.1,120.7,109.2l-0.1-0.2l-0.1,0c-0.1-0.1-0.1-0.1-0.2-0.2c-0.3-0.2-0.6-0.5-0.9-0.7
		c-1.2-0.8-2.6-1.4-4.1-1.7c-1.2-0.2-2.9,0.1-3,1.5c0,0,0,0.1,0,0.1c-0.1,1.3,1.3,2,2.4,2.1c1.2,0.1,2.3,0.1,3.5-0.1
		c0.8-0.1,1.6-0.3,2.4-0.4C120.7,109.5,120.8,109.3,120.7,109.2z"/>
	<path class="st2" d="M136.2,195.5c-1.2,0.4-34.6,0.5-35.9-0.3c-0.5-0.3-0.9-5.8-0.4-11.5l21.6,0.2c0,0,12.4,5.8,13.6,6.9
		S137.3,195.1,136.2,195.5z"/>
	<path class="st6" d="M103.4,188.7c-2.5,0-2.5,3.9,0,3.9C105.9,192.7,105.9,188.8,103.4,188.7z M128.3,186.5c-2.2,0-4.9,0.8-6.3,2.6
		c-0.1,0.1,0,0.1,0.1,0.1c2-1,4-1.8,6.2-2.4C128.5,186.7,128.5,186.5,128.3,186.5z M126.6,185.8c-2.2-0.1-4.9,0.8-6.3,2.6
		c-0.1,0.1,0.1,0.2,0.1,0.1c2-1,4-1.8,6.2-2.4C126.8,186,126.7,185.8,126.6,185.8z M124.9,185.1c-2.2,0-4.9,0.8-6.3,2.6
		c-0.1,0.1,0,0.1,0.1,0.1c2-1,4-1.8,6.2-2.4C125,185.3,125,185.1,124.9,185.1z M123.1,184.4c-2.2,0-4.9,0.8-6.3,2.6
		c-0.1,0.1,0,0.1,0.1,0.1c2-1,4-1.8,6.2-2.4C123.3,184.7,123.3,184.4,123.1,184.4z M132.9,189.5c-1.3,0-2.5,0.4-3.4,1.3
		c-0.8,0.8-1.3,1.9-1.3,3c0,0,0.1,0,0.1,0C128.7,191.6,130.6,189.8,132.9,189.5L132.9,189.5L132.9,189.5z M135.7,194.2
		c-5.6-0.2-28.2-0.4-33.8-0.1c0,0,0,0,0,0C107.4,194.4,130.1,194.4,135.7,194.2C135.8,194.3,135.8,194.2,135.7,194.2z"/>
	<path class="st6" d="M122.8,183.2l-1.1,0.8l-1,0.7l-0.1,0.1l-0.1,0.1l0-0.1c0.1-0.3,0.2-0.6,0.3-0.9c0.3-0.8,0.6-1.6,0.9-2.3
		c0.2-0.5,0.5-1,0.8-1.5c0.5-0.8,2.7-2.6,2.9-0.2C125.6,181.2,123.7,182.5,122.8,183.2z M125.6,178.5c-1.1-1-2.6,0-3.3,0.9
		c-0.9,1.3-1.6,2.9-1.9,4.5c-0.1,0.2-0.1,0.5-0.1,0.7c0,0.1,0,0.2,0,0.3v0.3c0,0,0,0.1,0.1,0.1c0,0.1,0.1,0.2,0.2,0.2
		c0.1,0,0.1,0,0.2,0c0.4-0.3,0.9-0.6,1.4-0.9l0.2-0.2c1.2-0.7,2.2-1.6,3.1-2.6C126.1,180.8,126.7,179.4,125.6,178.5z"/>
	<path class="st6" d="M117.6,185.2c-1.1,0.1-3.4,0.5-4.2-0.6c-0.2-0.2-0.4-0.5-0.4-0.8c-0.2-1.1,1.9-1.2,2.7-1
		c0.6,0.1,1.1,0.3,1.6,0.5c0.4,0.2,0.8,0.3,1.2,0.5c0.6,0.3,1.3,0.6,1.9,1l0.1,0.1h-0.5C119.1,185,118.4,185.1,117.6,185.2z
		 M120.7,185C120.8,185,120.8,184.9,120.7,185c0-0.1-0.1-0.2-0.1-0.2c0,0,0,0-0.1-0.1c-0.1-0.1-0.1-0.1-0.2-0.2
		c-0.3-0.2-0.6-0.5-0.9-0.7c-1.2-0.8-2.6-1.4-4.1-1.7c-1.2-0.2-2.9,0.1-3,1.5c0,0.1,0,0.1,0,0.2c-0.1,1.3,1.3,1.9,2.4,2.1
		c1.2,0.1,2.3,0.1,3.5-0.1c0.8-0.1,1.6-0.3,2.4-0.4C120.7,185.3,120.8,185.1,120.7,185z"/>
	<path class="st2" d="M197.4,119.7c-1.2,0.4-34.6,0.5-35.9-0.3c-0.5-0.3-0.9-11.5-0.4-17.2l21.6,0.2c0,0,0.1,5.8,0.4,5.9
		c2.1,1,12.1,5.7,13.2,6.7C197.5,115.9,198.5,119.3,197.4,119.7z"/>
	<path class="st6" d="M164.6,104.2c-2.5,0-2.5,3.9,0,3.9S167.1,104.3,164.6,104.2z M189.5,110.7c-2.2,0-4.9,0.8-6.3,2.6
		c-0.1,0.1,0,0.1,0.1,0.1c2-1,4-1.8,6.2-2.4C189.7,110.9,189.7,110.7,189.5,110.7z M187.8,110c-2.2-0.1-4.9,0.8-6.3,2.6
		c-0.1,0.1,0.1,0.1,0.1,0.1c2-1,4-1.8,6.2-2.4C188,110.2,188,110,187.8,110z M186.1,109.3c-2.2-0.1-4.9,0.8-6.3,2.5
		c-0.1,0.1,0,0.2,0.1,0.1c2-1,4-1.8,6.2-2.4C186.3,109.5,186.2,109.3,186.1,109.3z M184.3,108.6c-2.2,0-4.9,0.8-6.3,2.6
		c-0.1,0.1,0.1,0.1,0.1,0.1c2-1,4-1.8,6.2-2.4C184.5,108.8,184.5,108.6,184.3,108.6z M194.1,113.7c-1.3,0-2.5,0.4-3.4,1.3
		c-0.8,0.8-1.3,1.9-1.3,3c0,0,0.1,0,0.1,0C189.9,115.8,191.8,114,194.1,113.7C194.2,113.8,194.2,113.7,194.1,113.7z M196.9,118.4
		c-5.6-0.2-28.2-0.4-33.8-0.1c0,0,0,0,0,0C168.6,118.5,191.3,118.5,196.9,118.4C197,118.4,197,118.4,196.9,118.4z"/>
	<path class="st6" d="M184,107.4l-1.1,0.8c-0.3,0.2-0.7,0.5-1,0.8l-0.1,0.1l-0.1,0.1l0-0.1c0.3-0.9,0.6-1.8,1-2.6
		c0.1-0.2,0.1-0.3,0.2-0.5c0.2-0.5,0.5-1,0.8-1.5c0.5-0.8,2.7-2.6,2.9-0.2C186.8,105.4,184.9,106.7,184,107.4z M186.8,102.6
		c-1.1-1-2.6,0-3.3,0.9c-0.3,0.5-0.6,0.9-0.9,1.4c-0.6,1.2-1,2.4-1.2,3.7c0,0.1,0,0.2,0,0.3c0,0,0,0.1,0,0.1v0.2c0,0,0,0.1,0.1,0.1
		c0,0.1,0.1,0.2,0.2,0.2c0.1,0,0.1,0,0.2,0c0.4-0.3,0.9-0.6,1.4-0.9l0.2-0.2c1.2-0.7,2.2-1.6,3.1-2.6
		C187.3,105,187.9,103.5,186.8,102.6z"/>
	<path class="st6" d="M178.8,109.4c-1.1,0.1-3.4,0.5-4.2-0.6c-1.5-1.9,1.4-2.1,2.2-1.9c0.6,0.1,1.1,0.3,1.6,0.5
		c1.1,0.4,2.1,0.9,3.1,1.5l0.1,0.1h-0.5C180.3,109.2,179.6,109.3,178.8,109.4C178.7,109.4,178.8,109.4,178.8,109.4z M181.9,109.2
		C182,109.1,182,109.1,181.9,109.2l-0.1-0.2l0,0l-0.2-0.2c-1.4-1.2-3.2-2-5-2.4c-1.2-0.2-2.9,0.1-3,1.5c-0.2,1.4,1.2,2.1,2.4,2.2
		c1.2,0.1,2.3,0.1,3.5-0.1c0.8-0.1,1.6-0.3,2.4-0.4C181.9,109.5,182,109.3,181.9,109.2z"/>
	<path class="st4" d="M136.2,271.4c-1.2,0.4-34.6,0.5-35.9-0.3c-0.5-0.3-0.9-11.5-0.4-17.2l21.6,0.2c0,0,0.1,5.8,0.4,5.9
		c2.1,1,12.1,5.7,13.2,6.7C136.3,267.6,137.3,271,136.2,271.4z"/>
	<path class="st6" d="M104.3,254.1c0.1,1.2,0.2,2.4,0.2,3.6c0,1.2,0.1,2.4,0.1,3.6c0,1.2,0,2.4-0.1,3.6c-0.1,1.2-0.1,2.4-0.2,3.6
		c-0.1-1.2-0.2-2.4-0.2-3.6c0-1.2-0.1-2.4-0.1-3.6c0-1.2,0-2.4,0.1-3.6C104.1,256.5,104.1,255.3,104.3,254.1z M122.6,259.7
		c-2.1-0.9-4.8-1.1-6.8,0c-0.1,0,0,0.1,0.1,0.1c2.2-0.2,4.4-0.2,6.6,0.1C122.7,259.9,122.7,259.7,122.6,259.7z M122.4,257.9
		c-2.1-0.9-4.8-1.1-6.8,0c-0.1,0,0,0.1,0.1,0.1c2.2-0.2,4.4-0.2,6.6,0.1C122.5,258.2,122.5,258,122.4,257.9z M122.2,256.1
		c-2.1-0.9-4.8-1.1-6.8,0c-0.1,0.1,0,0.2,0.1,0.1c2.2-0.2,4.4-0.2,6.6,0.1C122.2,256.3,122.2,256.2,122.2,256.1z M132.9,265.4
		c-1.3,0-2.5,0.4-3.4,1.3c-0.8,0.8-1.3,1.9-1.3,3c0,0,0.1,0,0.1,0C128.7,267.4,130.6,265.7,132.9,265.4L132.9,265.4L132.9,265.4z
		 M135.7,270c-5.6-0.2-28.2-0.4-33.8-0.1c0,0,0,0,0,0C107.4,270.2,130.1,270.2,135.7,270C135.8,270.1,135.8,270,135.7,270z"/>
	<path class="st2" d="M197.4,271.4c-1.2,0.4-34.6,0.5-35.9-0.3c-0.5-0.3-0.9-19.5-0.4-25.2l21.6,0.2c0,0,0.1,13.8,0.4,13.9
		c2.1,1,12.1,5.7,13.2,6.7C197.5,267.6,198.5,271,197.4,271.4z"/>
	<path class="st6" d="M165.5,245.8c0.1,1.9,0.2,3.8,0.2,5.6c0,1.9,0,3.8,0.1,5.6c0,1.9,0,3.8-0.1,5.6c-0.1,1.9-0.1,3.8-0.2,5.6
		c-0.1-1.9-0.2-3.8-0.2-5.6c0-1.9,0-3.8-0.1-5.6c0-1.9,0-3.8,0.1-5.6C165.3,249.6,165.4,247.7,165.5,245.8z M183.7,259.8
		c-2-0.9-4.7-1.3-6.8-0.2c-0.1,0,0,0.1,0.1,0.1c2.2-0.1,4.4-0.1,6.6,0.3C183.7,260.1,183.8,259.9,183.7,259.8z M182.7,249
		c-2-0.9-4.7-1.3-6.8-0.2c-0.1,0,0,0.1,0.1,0.1c2.2-0.1,4.4-0.1,6.6,0.3C182.8,249.3,182.8,249.1,182.7,249z M182.8,250.8
		c-2-0.9-4.7-1.3-6.8-0.2c-0.1,0,0,0.2,0.1,0.1c2.2-0.1,4.4,0,6.6,0.3C182.9,251.1,183,250.9,182.8,250.8z M183,252.6
		c-2-0.9-4.7-1.3-6.8-0.2c-0.1,0,0,0.2,0.1,0.2c2.2-0.1,4.4,0,6.6,0.3C183.1,252.9,183.1,252.7,183,252.6z M183.2,254.4
		c-2-0.9-4.7-1.3-6.8-0.2c-0.1,0,0,0.2,0.1,0.2c2.2-0.1,4.4-0.1,6.6,0.3C183.3,254.7,183.3,254.5,183.2,254.4z M183.5,258
		c-2-0.9-4.7-1.3-6.8-0.2c-0.1,0,0,0.1,0.1,0.1c2.2-0.1,4.4-0.1,6.6,0.3C183.6,258.3,183.6,258.1,183.5,258z M183.3,256.2
		c-2-0.9-4.7-1.3-6.8-0.2c-0.1,0,0,0.2,0.1,0.2c2.2-0.1,4.4-0.1,6.6,0.3C183.4,256.5,183.5,256.3,183.3,256.2z M196.9,270
		c-5.6-0.2-28.2-0.4-33.8-0.1c0,0,0,0,0,0C168.6,270.2,191.3,270.2,196.9,270C197,270.1,197,270,196.9,270z M194.1,265.4
		c-1.3,0-2.5,0.4-3.4,1.3c-0.8,0.8-1.3,1.9-1.3,3c0,0,0.1,0,0.1,0C189.9,267.4,191.8,265.7,194.1,265.4
		C194.1,265.4,194.1,265.4,194.1,265.4z"/>
	<path class="st9" d="M37.3,242.4c4.8-9.8,13.1-14.8,22.5-12c9.4,2.8,10.8,15.9,3.8,19.2c-7,3.3-14-6.3-17.7-8.3
		C42.2,239.2,37.3,242.4,37.3,242.4z"/>
	<path class="st6" d="M43.7,235.8c0.3-0.4,0.7-0.7,1.1-1c0.4-0.3,0.8-0.6,1.2-0.9c0.8-0.6,1.7-1,2.7-1.2c0.1,0,0.1,0.1,0,0.1
		c-1,0.2-1.9,0.7-2.7,1.3c-0.4,0.3-0.8,0.6-1.1,0.9c-0.3,0.3-0.7,0.7-1.1,0.9C43.7,235.9,43.6,235.9,43.7,235.8z M32.7,268.4
		c0-1.2,0.1-2.4,0.1-3.5c0.1-2.4,0.2-4.7,0.2-7.1c0.2-4.3,0.6-8.5,2.4-12.5c1.6-3.6,4.2-6.6,7.6-8.7c1.2-0.8,2.6-1.3,4-1.7
		c1.3-1.3,2.9-2.2,4.6-2.5c2.2-0.4,4.4-0.5,6.6-0.2c0.1,0,0.1,0.1,0,0.1c-2.1-0.3-4.2-0.1-6.2,0.5c-1.4,0.4-2.8,1-4,1.9
		c2.6-0.6,5.3-0.3,7.7,0.7c0.5-0.1,1-0.2,1.6-0.1c0.7,0,1.4,0.1,2,0.3c1.4,0.4,2.6,1,3.8,1.7c0.1,0,0,0.1-0.1,0.1
		c-1.2-0.6-2.4-1.1-3.8-1.4c-0.6-0.1-1.3-0.2-1.9-0.3c-0.4,0-0.7,0-1.1,0c2.7,1.2,4.8,3.4,6.1,6.1c0,0.1-0.1,0.1-0.1,0.1
		c-1.5-3.1-4.4-5.4-7.7-6.2c-0.2-0.1-0.4-0.1-0.6-0.1c0.1,0.3,0.1,0.6,0.1,0.9c0.1,0.5,0.1,1,0.2,1.4c0.2,1,0.4,1.9,0.8,2.9
		c0.3,1,0.7,1.9,1.1,2.8c0.4,0.9,1,1.8,1.6,2.7c0.1,0.1-0.1,0.2-0.1,0.1c-0.6-0.9-1.2-1.7-1.7-2.6c-0.5-0.9-0.9-1.8-1.3-2.7
		c-0.4-0.9-0.6-1.9-0.8-2.9c-0.1-0.5-0.2-1.1-0.2-1.6c-0.1-0.3-0.1-0.6-0.1-1c-1.1-0.2-2.2-0.2-3.3-0.1c0.4,2.3,0.9,4.8,2.2,6.8
		c0,0.1-0.1,0.1-0.1,0.1c-0.6-1.1-1.2-2.2-1.6-3.3c-0.4-1.1-0.7-2.3-0.8-3.5c-1.9,0.3-3.8,0.9-5.5,1.8c-3.2,1.9-5.8,4.7-7.3,8
		c-1.7,3.6-2.6,7.5-2.7,11.5c-0.3,5-0.4,10-0.9,15c0,0.3-0.6,0.4-0.6,0.1C32.6,270.7,32.6,269.5,32.7,268.4z"/>
	<path class="st6" d="M48.6,238.4c0.1,0.6,0.3,1.2,0.5,1.8c0.3,0.5,0.6,1.1,0.9,1.6c0,0,0,0.1-0.1,0c-0.8-0.9-1.3-2.1-1.5-3.4
		C48.5,238.4,48.6,238.3,48.6,238.4z M58.9,239.4c0.8,0.9,1.5,1.9,2.2,2.9c0.7,1,1.2,2.1,1.6,3.2c0,0,0,0.1-0.1,0
		C61.5,243.4,60.2,241.3,58.9,239.4C58.7,239.4,58.8,239.3,58.9,239.4z"/>
	<path class="st9" d="M33.3,242.6c0,0-6.8-8.5-19.8-5.5C1.2,240-4.5,262.7,8,265.4c12.5,2.7,10.3-18.3,14.9-21.8
		C26.2,241,31,241.5,33.3,242.6z"/>
	<path class="st6" d="M3.5,249.5c0.8-0.7,1.7-1.4,2.7-2.1c0.9-0.6,1.8-1.1,2.9-1.4c1.4-2.2,3.4-4,5.6-5.3h-0.4c-0.7,0-1.4,0-2.1,0
		c-1.4,0.1-2.8,0.4-4,1c-0.1,0-0.1-0.1-0.1-0.1c1.3-0.6,2.6-1,4-1.2c1-0.2,2.1-0.2,3.1-0.1h0.2c1.2-0.6,2.5-1.1,3.8-1.4l-0.4-0.1
		c-0.6-0.1-1.3-0.2-1.9-0.3c-1.3-0.1-2.6-0.1-3.9,0.1c-0.1,0-0.1-0.1,0-0.1c1.3-0.2,2.6-0.2,3.9-0.2c1.1,0,2.2,0.2,3.3,0.4
		c0.8-0.1,1.6-0.2,2.4-0.3c4.5-0.2,9.5,1.5,12.3,5.2s3.3,8.7,3.8,13.2c0.8,6.3,0.9,12.6,0.5,18.9c0,0.4-0.5,0.3-0.6,0
		c-0.2-5.4-0.4-10.7-0.9-16c-0.2-2.5-0.5-4.9-0.9-7.4c-0.3-2.1-0.9-4.2-1.8-6.1c-1-2-2.5-3.6-4.4-4.7c-1.9-1.1-4-1.7-6.2-1.9
		c-2-0.2-3.9,0-5.8,0.5c0.1,0.4,0.1,0.8,0,1.1c0,0.5-0.1,1-0.3,1.4c-0.1,0.4-0.3,0.9-0.5,1.3c-0.2,0.4-0.5,0.8-0.8,1.3
		c0,0.1-0.2,0-0.1-0.1c0.5-0.8,0.9-1.6,1-2.6c0.1-0.4,0.1-0.9,0.2-1.3v-1c-2.1,0.6-4,1.7-5.7,3c-0.3,0.3-0.6,0.5-0.9,0.8
		c0.4,0.4,0.8,0.9,1.1,1.4c0.4,0.6,0.8,1.3,1.1,2c0.6,1.4,1,3,1.2,4.5c0,0.1-0.1,0.1-0.1,0c-0.2-1.5-0.8-3-1.5-4.3
		c-0.3-0.6-0.7-1.3-1.1-1.9c-0.2-0.3-0.5-0.6-0.7-0.9c-0.1-0.2-0.3-0.3-0.4-0.5c-1.5,1.5-2.8,3.3-3.7,5.2c0.6,0.7,1.1,1.4,1.5,2.2
		c0.5,0.8,0.9,1.7,1.2,2.6c0.6,1.7,1.1,3.5,1.6,5.3c0,0.1-0.1,0.1-0.1,0c-0.4-1.8-1-3.6-1.8-5.2c-0.4-0.8-0.8-1.6-1.2-2.4
		c-0.5-0.7-0.9-1.5-1.2-2.2c-0.9,1.9-1.4,3.9-1.5,6c0,0,0,0.1-0.1,0.1c0,0-0.1,0-0.1-0.1c0.2-3.3,1.2-6.4,2.9-9.2
		c-0.8,0.3-1.6,0.7-2.4,1.1C5.3,248.2,4.4,248.9,3.5,249.5C3.5,249.7,3.5,249.6,3.5,249.5z"/>
	<path class="st6" d="M4.8,246.8c0.5-0.5,1.1-0.9,1.7-1.2c0.6-0.3,1.3-0.5,2-0.7c0.1,0,0.1,0.1,0,0.1c-0.7,0.2-1.3,0.4-1.9,0.8
		C6,246.1,5.4,246.5,4.8,246.8C4.8,246.9,4.8,246.9,4.8,246.8z M13.1,250c0.4,1.3,0.9,2.5,1.2,3.8c0.4,1.2,0.6,2.5,0.6,3.8
		c0,0-0.1,0-0.1,0c-0.3-2.6-1-5.2-1.9-7.6C12.9,250,12.9,249.9,13.1,250C13,249.9,13,249.9,13.1,250z"/>
	<path class="st9" d="M26.9,231.3c0,0-1.2-15.2-12.6-20.2c-9.4-4.1-14.9,6.5-8.2,13C11.6,229.4,20.2,227,26.9,231.3z"/>
	<path class="st6" d="M8.3,214.1c1.7,0.7,3.4,1.5,5,2.4c1.4,0.8,2.7,1.6,3.9,2.6c-0.2-0.4-0.3-0.8-0.5-1.2c-0.3-0.6-0.6-1.2-1-1.7
		c-0.7-1.1-1.5-2.2-2.5-3.2c-0.1-0.1,0-0.1,0.1-0.1c1,0.9,1.8,2,2.6,3.1c0.4,0.6,0.7,1.1,1.1,1.7c0.3,0.5,0.6,1.1,0.8,1.8l0.1,0.1
		c2,1.6,3.8,3.3,5.4,5.3c0-0.1-0.1-0.3-0.1-0.4c-0.2-0.8-0.4-1.5-0.7-2.2c-0.5-1.6-1.1-3.1-2-4.4c0-0.1,0.1-0.1,0.1-0.1
		c0.9,1.4,1.7,2.8,2.4,4.3c0.3,0.7,0.6,1.5,0.8,2.2c0.2,0.5,0.3,1,0.4,1.5c0.5,0.6,1,1.3,1.4,1.9c4.9,6.9,7.3,15.3,7.9,23.7
		c0.2,2.5,0.2,5,0.1,7.5c0,2.5-0.2,5-0.7,7.5c0,0.2-0.3,0.1-0.3,0c0.1-2.2,0.3-4.4,0.3-6.6c0-2.2,0-4.4-0.2-6.6
		c-0.4-4.4-1.2-8.7-2.5-12.8c-1.3-4.3-3.3-8.4-5.8-12.2c-0.5-0.1-1-0.2-1.4-0.3c-0.5-0.1-1.1-0.3-1.7-0.4c-1.1-0.3-2.1-0.7-3.1-1.2
		c-0.1,0,0-0.1,0.1-0.1c1,0.5,2.1,0.9,3.2,1.1c0.9,0.2,1.8,0.3,2.7,0.5c-0.8-1.2-1.7-2.3-2.6-3.5c-2.2,0.2-4.3,0-6.4-0.5
		c-1.1-0.3-2.2-0.6-3.3-1c-1.1-0.4-2.2-1-3.3-1.5c-0.1,0,0-0.2,0.1-0.1c2,1.1,4.2,1.8,6.5,2.1c2,0.3,4.1,0.5,6.1,0.5
		c-0.8-0.9-1.6-1.8-2.5-2.7C15.7,218.1,12.2,215.5,8.3,214.1C8.1,214.2,8.2,214.1,8.3,214.1z"/>
	<path class="st6" d="M7,219.2c0.7,0.4,1.5,0.7,2.3,0.9c0.8,0.3,1.6,0.5,2.4,0.6v0.1c-0.8-0.1-1.7-0.3-2.4-0.5
		c-0.8-0.3-1.6-0.6-2.3-1C6.8,219.3,6.9,219.2,7,219.2z M17.5,214.1c0.5,0.6,1,1.3,1.4,2c0.4,0.7,0.8,1.5,1,2.4h0
		c-0.4-0.8-0.7-1.5-1.1-2.2C18.4,215.5,17.9,214.9,17.5,214.1C17.3,214.2,17.4,214.1,17.5,214.1z"/>
	<path class="st9" d="M35.7,228.6c0.1,0.7,1.7-5.5,11.2-11c8.7-5,19.1-18,10.5-26.1C50.7,184.8,32.5,199.2,35.7,228.6z"/>
	<path class="st6" d="M29.1,264c0.1-6.4,0.6-12.9,1.5-19.2c0.8-5.9,2.1-11.7,4-17.2c0.7-2,1.5-4,2.4-5.9c0-0.8,0-1.5,0-2.2
		c0-1,0.1-1.9,0.2-2.9c0.1-1,0.2-1.9,0.3-2.9c0.1-1,0.3-1.9,0.4-2.9c0-0.1,0.1-0.1,0.1,0c-0.2,1-0.3,2-0.3,3.1
		c-0.1,0.9-0.1,1.9-0.2,2.8c0,0.9,0,1.9,0,2.8v1.1c0.9-1.9,1.9-3.8,2.9-5.6c-0.7-4,0.2-8.1,1-12c0-0.1,0.1,0,0.1,0
		c-0.4,2-0.6,4.1-0.6,6.1c0,1.6,0,3.3,0,4.9c0.2-0.4,0.5-0.8,0.7-1.2c1.2-2,2.6-4,4-5.9c-0.1-0.9-0.1-1.9,0.1-2.8
		c0.2-1,0.4-2.1,0.7-3.1c0.3-1,0.7-2,1.1-3c0.4-1,1-2,1.4-3c0,0,0,0,0.1,0c0,0,0,0.1,0,0.1c-0.5,1-0.9,2-1.2,3c-0.3,1-0.6,2-0.8,3
		c-0.2,1-0.4,2-0.5,3c-0.1,0.7-0.1,1.4-0.3,2c2.1-2.7,4.3-5.3,6.7-7.8c0.1-0.1,0.1,0,0.1,0.1c-3.7,4.1-6.9,8.5-9.8,13.2
		c-0.1,0.2-0.2,0.4-0.3,0.5c0.5-0.3,1.1-0.6,1.6-0.9c0.9-0.5,1.9-1,2.8-1.5c0.9-0.5,1.8-1,2.7-1.5c0.5-0.3,0.9-0.5,1.4-0.8
		c0.6-0.3,1.1-0.6,1.6-0.9c0.1-0.1,0.1,0.1,0.1,0.1c-0.9,0.5-1.7,1.3-2.6,1.8c-0.9,0.6-1.8,1.1-2.7,1.6c-1.7,0.9-3.5,1.6-5.2,2.6
		c-1.2,2-2.2,4.1-3.2,6.2c1-0.7,2-1.3,3.1-1.9c0.7-0.4,1.4-0.8,2-1.1c0.7-0.3,1.3-0.7,1.9-1.2c0.1,0,0.1,0,0.1,0.1
		c-1.1,1-2.4,1.9-3.7,2.6c-1.2,0.8-2.5,1.4-3.8,2c-1,2.2-2,4.5-2.8,6.9c-4,11.4-5.4,23.5-6.2,35.5c-0.2,3.6-0.3,7.2-0.4,10.8
		c0,3.6,0.1,7.2,0.1,10.7c0,0.1-0.2,0.1-0.2,0c-0.4-3.2-0.5-6.4-0.6-9.6C29,270.6,29,267.3,29.1,264z"/>
	<path class="st6" d="M43.7,199.5c0.1-0.6,0.3-1.1,0.5-1.6c0,0,0,0,0-0.1c0.1-0.3,0.2-0.6,0.4-0.9l0-0.1c0-0.1,0.1-0.1,0.1-0.2
		c0-0.1-0.1,0.2-0.1,0.3c0,0.1,0,0.1,0,0.2c-0.6,2.1-1.1,4.3-1.4,6.5c0,0.1-0.1,0.1-0.1,0C43.2,202.2,43.4,200.8,43.7,199.5z
		 M46.5,212.4c1.8-0.8,3.4-1.6,5.1-2.6c1.7-0.9,3.3-2,4.8-3.1c0,0,0.1,0,0,0c-1.5,1.2-3,2.3-4.6,3.2c-1.7,0.9-3.4,1.8-5.2,2.5
		C46.5,212.5,46.4,212.4,46.5,212.4z"/>
	<polygon class="st4" points="19,266.3 19.7,274.4 21.8,299.1 44.2,299.1 46.3,274.4 47,266.3 	"/>
	<polygon class="st6" points="19,266.3 19.7,274.4 46.3,274.4 47,266.3 	"/>
	<rect x="16.8" y="263.1" class="st4" width="32.3" height="7.8"/>
	<path class="st6" d="M216.9,266c0,6.9-5.1,12.4-11.5,12.4H92c-6.4,0-11.5-5.6-11.5-12.4V23C80.5,9,85.7,8.3,92,8.3h22.7
		c1.3,0,2.4,1.5,2.4,3.4v0.8c0,4.4,2.4,4.4,5.3,4.4H175c3,0,5.3,0,5.3-4.4v-0.8c0-1.9,1.1-3.4,2.4-3.4h22.7
		c6.3,0,11.5,1.9,11.5,14.7L216.9,266z M212.1,0H85.3c-3.4,0-6.7,1.4-9.1,3.9c-2.4,2.4-3.7,5.8-3.7,9.2v261
		c-0.1,7.1,5.7,13,12.8,13.1h126.8c7.1-0.1,12.9-5.9,12.8-13.1v-261C225,5.9,219.3,0.1,212.1,0z"/>
	<polygon class="st10" points="225.1,274.2 225,274.2 225,274.1 	"/>
	<polygon class="st5" points="222.2,222.8 220.5,233.5 208.4,298.6 206.5,298.6 215.2,233.5 216.5,222.8 	"/>
	<polygon class="st7" points="216.5,222.8 222.2,222.8 220.5,233.5 215.2,233.5 	"/>
	<polygon class="st5" points="260.1,298.6 258.2,298.6 246.1,233.5 244.3,222.8 250,222.8 251.3,233.5 	"/>
	<polygon class="st7" points="250,222.8 251.3,233.5 246.1,233.5 244.3,222.8 	"/>
	<polygon class="st5" points="296.3,298.6 294.3,298.6 282.3,233.5 280.5,222.8 286.2,222.8 287.5,233.5 	"/>
	<polygon class="st7" points="287.5,233.5 282.3,233.5 280.5,222.8 286.2,222.8 	"/>
	<polygon class="st5" points="293.2,227.8 204.8,227.8 204.8,218.5 237.9,218.5 249,170 289.8,170 	"/>
	<polygon class="st7" points="293.2,227.8 288.4,227.8 285.2,170 289.8,170 	"/>
	<path class="st10" d="M203.8,306.1c1.7,0.2,47.2-10.4,48.6-11.8c0.2-0.2-1.4-9-1.4-9c-0.7-3.6-13.1-32.9-13.1-32.9l-29.7,7.3
		l12.6,27.2c0,0-5.7,3.8-10.5,7.5c-2.2,1.5-4.2,3.2-6.2,4.9C202.6,301.2,202.1,305.9,203.8,306.1z"/>
	<path class="st3" d="M252.4,294.3c-1.5,1.4-47,12-48.6,11.8c-1.7-0.2-1.2-5,0.2-6.7c2-1.8,4-3.4,6.2-4.9c4.9-3.7,10.5-7.5,10.5-7.5
		l-2.8-6.1l28.8-7c2.2,5.4,4,10.1,4.2,11.4C251,285.4,252.6,294.2,252.4,294.3z"/>
	<path class="st2" d="M203.7,306.3c1.7,0.2,47.6-10.1,49.1-11.6c0.6-0.6-0.7-7.2-2.3-15.4c0-0.1-0.1-0.7-0.1-0.8l-29.4,6.7l0.1,0.5
		c0,0-15.8,11.8-17.2,13.6C202.3,301.2,201.9,306.1,203.7,306.3z"/>
	<path class="st6" d="M213.8,289.7c2.9-1.3,6.8-1.6,9.5,0c0.1,0.1,0,0.2-0.1,0.2c-3.1-0.3-6.3-0.2-9.4,0.1
		C213.8,290.1,213.7,289.8,213.8,289.7z M215.7,287.9c2.9-1.2,6.8-1.6,9.5,0c0.1,0.1,0,0.2-0.1,0.2c-3.1-0.3-6.3-0.2-9.4,0.2
		C215.7,288.2,215.6,288,215.7,287.9z M217.6,286.1c2.9-1.2,6.8-1.6,9.5,0c0.1,0.1,0,0.2-0.1,0.2c-3.1-0.3-6.3-0.2-9.4,0.1
		C217.6,286.4,217.5,286.2,217.6,286.1z M203.8,304.4c7.7-1.9,38.9-8.9,46.6-10.3c0.1,0,0.1,0,0,0.1c-7.6,2.1-38.8,8.8-46.6,10.3
		C203.6,304.5,203.6,304.4,203.8,304.4z"/>
	<path class="st6" d="M213.2,282.1c-1.3-3.2,2.7-2.2,3.8-1.6c0.7,0.4,1.4,0.9,2,1.4c1.3,1.1,2.6,2.2,3.8,3.4c-1.3-0.3-2.7-0.4-4-0.6
		C217.1,284.3,213.9,283.9,213.2,282.1L213.2,282.1z M214.5,284.4c2.5,1.2,5.5,1.2,8.2,1.6c0.3,0,0.5-0.2,0.4-0.5
		c0.1,0,0.1-0.1,0.1-0.1c-1.5-2.5-3.7-4.5-6.3-5.9c-1.5-0.8-3.9-1-4.7,0.9C211.4,282.3,213.1,283.7,214.5,284.4z"/>
	<path class="st6" d="M226.6,283.8c-1.3,0.4-2.6,0.8-3.8,1.3c1-1.4,1.9-2.7,3-4c0.5-0.6,1.1-1.2,1.7-1.7c1-0.8,4.7-2.5,4,0.9
		C231.2,282.2,228.2,283.3,226.6,283.8L226.6,283.8L226.6,283.8z M232.3,278.5c-1.2-1.7-3.5-1.1-4.8,0c-2.3,1.8-4,4.2-5.1,6.9
		c0,0.1,0,0.1,0.1,0.1c0,0.2,0.2,0.5,0.5,0.4c2.6-0.9,5.5-1.4,7.8-3.1C232.1,281.9,233.4,280.1,232.3,278.5z"/>
	<g class="st11">
		<g>
			<path d="M217,303.6c-7.2,1.6-12.8,2.7-13.4,2.6c-1.7-0.2-1.3-5.1,0.1-6.9c1.9-1.8,3.9-3.5,6-5L217,303.6z"/>
		</g>
	</g>
	<path class="st12" d="M218.8,286l31.6-7.4c0,0-26.3-60.4-24-63.4c1.2-1.5,30.5-2,39.9-9.9c12.1-10.3,4-26,4-26l-32.8-1
		c0,0,0.4,6.9-0.9,7.9c-0.8,0.7-40,4-44.2,17.2C187,219.4,218.8,286,218.8,286z"/>
	<path class="st6" d="M220.7,212.4c0.7-0.5,1.6-0.7,2.5-0.8l14.2-2.4c4.4-0.8,8.9-1.4,13.3-2.2c3.7-0.7,7.4-1.6,10.5-3.6
		c3.1-2,5.4-4.9,6.5-8.4c1-3.5,1.3-7.2,0.8-10.8c-0.1-0.9-0.2-1.8-0.4-2.6c0-0.1,0.1-0.1,0.1,0c1.2,6.8,1.3,14.5-3.8,19.9
		c-2.5,2.6-5.8,4.1-9.2,5.1c-3.9,1-7.9,1.8-11.9,2.3l-14.2,2.4c-2.2,0.4-4.6,0.7-6.9,1.1c-0.5,0.1-0.9,0.2-1.2,0.5
		c-0.3,0.5-0.4,1.1-0.2,1.6c0.2,1.1,0.5,2.2,0.8,3.3c2.6,8.8,21.7,53.9,22.2,54.8c0.1,0.1-0.1,0.2-0.2,0.1
		c-4.4-7.7-18.6-43.2-21.5-51.5c-0.8-2.1-1.4-4.3-1.9-6.5C220.1,213.9,220,213,220.7,212.4z M218.8,281.1c0.8-0.4,9-2.8,10.8-3.3
		c3.7-0.9,7.4-1.9,11.1-2.7c1.9-0.4,6.1-1.4,6.3-1.4c0.1,0,0.1,0.2,0,0.3c-3.6,1.2-7.3,2.2-10.9,3.2c-3.7,1-16.2,4.1-17.3,4.1
		C218.8,281.4,218.7,281.2,218.8,281.1z"/>
	<path class="st10" d="M156.8,308.1c1.6,0.5,47.1-0.1,48.9-1.2c1.9-1.8,2.7-44.8,2.7-44.8l-29.3-0.2l-1.8,30.8c0,0-6.3,2.6-11.8,5.2
		c-2.4,1.1-4.8,2.3-7,3.6C156.7,303,155.2,307.6,156.8,308.1z"/>
	<path class="st3" d="M207.6,287.6c-0.4,9.7-1.1,18.6-1.9,19.4c-1.7,1.1-47.2,1.8-48.9,1.2c-1.6-0.5-0.2-5.1,1.6-6.5
		c2.3-1.3,4.6-2.5,7-3.6c5.5-2.6,11.8-5.2,11.8-5.2l0.3-5.2L207.6,287.6z"/>
	<path class="st2" d="M155.9,308.2c1.7,0.5,48.6,0.3,50.4-0.8c0.7-0.4,1.1-7.3,1.3-15.5v-0.3l-30.3-0.2v0.5c0,0-18,8.1-19.8,9.6
		C155.6,302.9,154.3,307.6,155.9,308.2z"/>
	<path class="st6" d="M169.4,294.2c3.1-0.6,6.9-0.1,9.3,2.1c0.1,0.1,0,0.2-0.1,0.2c-3-0.9-6.1-1.6-9.2-1.9
		C169.2,294.6,169.1,294.2,169.4,294.2z M171.7,292.8c3.1-0.6,6.9-0.1,9.3,2.1c0.1,0.1,0,0.2-0.1,0.2c-3-0.9-6.1-1.6-9.2-1.9
		C171.4,293.2,171.4,292.8,171.7,292.8z M173.9,291.5c3.1-0.6,6.9-0.1,9.3,2.1c0.1,0.1,0,0.2-0.1,0.2c-3-0.9-6.1-1.6-9.2-1.9
		C173.7,291.9,173.6,291.5,173.9,291.5z M156.4,306.3c7.9-0.2,39.9-0.4,47.7-0.1c0.1,0,0.1,0,0,0c-7.9,0.4-39.8,0.3-47.7,0.1
		C156.2,306.5,156.2,306.3,156.4,306.3z"/>
	<path class="st6" d="M170.4,286.6c-0.6-3.4,3.1-1.6,4-0.8c0.6,0.6,1.1,1.1,1.7,1.8c1,1.3,2,2.7,2.9,4.1c-1.2-0.5-2.5-1-3.8-1.5
		C173.8,289.6,170.7,288.5,170.4,286.6L170.4,286.6L170.4,286.6z M171.2,289.1c2.2,1.7,5.1,2.4,7.7,3.3c0.2,0.1,0.5-0.1,0.5-0.4
		c0.1,0,0.1-0.1,0.1-0.1c-1-2.8-2.6-5.2-4.8-7.1c-1.3-1.1-3.6-1.8-4.8-0.1C168.6,286.4,169.9,288.1,171.2,289.1z"/>
	<path class="st6" d="M183.2,291.2c-1.3,0.2-2.7,0.3-4,0.5c1.3-1.1,2.5-2.2,3.8-3.2c0.7-0.5,1.3-0.9,2-1.3c1.1-0.6,5.1-1.4,3.8,1.8
		C188,290.6,184.8,291,183.2,291.2z M189.8,287.1c-0.8-1.9-3.2-1.8-4.7-1c-2.6,1.3-4.8,3.3-6.4,5.7c0,0,0,0.1,0,0.1
		c-0.1,0.2,0.1,0.5,0.4,0.5c2.7-0.3,5.7-0.2,8.2-1.3C188.9,290.4,190.6,289,189.8,287.1z"/>
	<path class="st12" d="M175.7,291.7h33c0,0-0.4-59.6,2.2-62.9c3.4-4.4,51.8-4.3,62.1-18.7c9.3-12.9,1.4-31.2,1.4-31.2l-36.6-1.1
		c0.8,3.9,2,7.8,3.4,11.5c0,0-44.1,8.1-56.4,21.6C176.5,220.1,175.7,291.7,175.7,291.7z"/>
	<path class="st6" d="M234.8,186.9c1.1,0.2,2.1,0.6,3.1,1c1,0.4,2.1,0.9,3.1,1.3c2,1,3.9,2.1,5.8,3.3c0.1,0,0,0.1-0.1,0.1
		c-2-1-4-2-6.1-2.8l-3-1.2c-1-0.4-2-0.8-3-1.3C234.6,187.1,234.7,186.8,234.8,186.9z"/>
	<path class="st6" d="M258.7,181.9c0.2,0.8,0.2,1.7,0.4,2.5c0.2,0.8,0.4,1.6,0.7,2.4c0.2,0.8,0.6,1.5,1,2.1c0.5,0.6,1,1.2,1.6,1.6
		c1.2,0.9,2.5,1.7,3.9,2.2c0.7,0.3,1.4,0.5,2.2,0.6c0.4,0.1,0.8,0.2,1.2,0.2c0.3,0,0.6,0.1,0.9,0.2c0.1,0.1,0.1,0.2,0,0.3
		c-0.6,0.2-1.2,0.2-1.7,0.1c-0.6-0.1-1.2-0.2-1.9-0.3c-1.2-0.3-2.4-0.8-3.5-1.5c-1.1-0.6-2.1-1.4-2.9-2.4c-0.8-1-1.3-2.2-1.6-3.4
		c-0.4-1.5-0.6-3.1-0.5-4.7C258.6,181.8,258.7,181.9,258.7,181.9z M237,177.8c0.4,1.7,0.8,3.4,1.3,5c0.2,0.8,0.4,1.5,0.8,2.2
		c0.2,0.6,0.6,1.3,1.3,1.5c0.8,0.2,1.1-0.5,1-1.2c-0.1-0.7-0.3-1.5-0.4-2.2c-0.2-0.9-0.4-1.7-0.5-2.6c-0.1-0.4-0.2-0.9-0.2-1.3
		c0-0.1-0.1-0.9-0.2-1.2c0,0,0,0,0,0c0,0-0.1,0-0.1,0c0,0,0-0.1,0-0.1c0,0,0.1,0,0.1,0c0.2,0.1,0.2,0.3,0.2,0.5
		c0.1,0.4,0.3,0.8,0.4,1.3c0.2,0.8,0.5,1.6,0.7,2.4c0.2,0.8,0.4,1.6,0.6,2.4c0.2,0.6,0.3,1.2,0.2,1.9c-0.2,0.6-0.7,1-1.3,1.1
		c0,0.1,0.1,0.1,0.1,0.2c0.1,0.2,0.1,0.3,0.2,0.5c0.1,0.2,0.1,0.3,0.2,0.5c0,0.1,0,0.2,0,0.3v0.3c0,0.1-0.2,0.2-0.3,0.1
		c-0.1-0.2-0.1-0.2-0.2-0.2c-0.1-0.1-0.1-0.2-0.1-0.3c0-0.1-0.1-0.3-0.1-0.5c0-0.2-0.1-0.3-0.1-0.5c0-0.2,0-0.2,0-0.3
		c-0.3,0-0.7-0.2-1-0.4c-0.5-0.4-0.8-0.9-1-1.5c-0.3-0.7-0.4-1.4-0.6-2.1c-0.5-1.8-0.9-3.6-1.1-5.4
		C236.7,177.7,236.9,177.6,237,177.8z"/>
	<path class="st6" d="M241,189.5c-6.8,0.8-13.4,2.2-20,4.1c-6.6,1.8-13,4.2-19.2,6.9c-3.5,1.6-6.9,3.3-10.2,5.2
		c-0.1,0,0,0.1,0.1,0.1c6.1-3.1,12.3-5.9,18.8-8.2c6.4-2.3,12.9-4.2,19.5-5.6c3.8-0.8,7.5-1.4,11.2-2.1
		C241.3,189.8,241.3,189.4,241,189.5z M177.2,286.5c7.5-0.5,29-0.3,29.2-0.2c0.1,0.1,0.1,0.2,0,0.3c-3.8,0.3-28.1,0.4-29.2,0.2
		C177.1,286.7,177.1,286.5,177.2,286.5z M203.9,250.4c0.3-5.2,0.8-10.4,1.3-15.5c0.1-1.3,0.3-2.6,0.4-3.8c0.1-1,0.3-2,0.6-2.9
		c0.8-1.9,2.4-2.9,4.3-3.4c2.3-0.6,4.7-0.9,7-1.3c2.3-0.4,4.8-0.8,7.2-1.1c4.9-0.7,9.8-1.3,14.6-2.1c4.9-0.8,9.6-1.9,14.4-3.2
		c4.3-1.3,8.8-2.9,12.2-5.9c7.4-6.4,7.7-17.2,6.8-26.2c-0.1-1.3-0.3-2.5-0.4-3.8c0-0.1,0.1-0.1,0.1,0c0.6,5.1,1.3,10.2,0.8,15.3
		c-0.3,4.2-1.7,8.3-4.1,11.9c-2.5,3.6-6.3,5.9-10.3,7.6c-4.4,1.7-9,3-13.7,3.9c-9.7,2-19.5,2.9-29.2,4.5c-1.2,0.2-2.4,0.4-3.6,0.7
		c-1.1,0.2-2.2,0.5-3.2,0.9c-2.2,1-2.8,3.1-3.1,5.3c-0.6,5.1-1.1,10.3-1.4,15.5c-0.8,10.4-1.1,20.9-1.1,31.4v6.9
		c0,0.1-0.2,0.1-0.2,0C203.1,274.3,203.3,260.8,203.9,250.4z"/>
	<path class="st6" d="M208.8,242.1c0.2-3.6,0.6-7.2,1.2-10.7c0.2-1.4,0.3-3.3,1.8-4c0.7-0.3,14.7-2.8,16.7-2.7c0.1,0,0.1,0.1,0,0.2
		c-0.2,0.1-13.5,2.6-15.2,3c-0.7,0.1-1.4,0.4-1.9,1c-0.3,0.7-0.5,1.5-0.6,2.3c-1.1,7-1.7,14-1.9,21.1c-0.1,1.9-0.1,3.9-0.1,5.9
		c0,1.9,0.1,4-0.1,6c0,0.2-0.3,0.2-0.3,0c-0.1-1.8-0.1-3.7-0.1-5.5c0-1.8,0-3.7,0-5.5C208.5,249.4,208.6,245.8,208.8,242.1z"/>
	<path class="st12" d="M209.7,121.3l8.1,20c0.4,0.5,0.1,1.1-0.5,1.2l-10.7,1.5c-0.7,0-1.3-0.3-1.6-0.9l-8.1-20
		c-0.4-0.5-0.1-1.1,0.5-1.2l10.7-1.5C208.7,120.3,209.4,120.7,209.7,121.3z"/>
	<path class="st4" d="M208.4,121.4l8.1,20c0.3,0.6,0.1,1.1-0.5,1.2l-10.7,1.5c-0.7,0-1.3-0.3-1.6-0.9l-8.1-20
		c-0.3-0.6-0.1-1.1,0.5-1.2l10.7-1.5C207.4,120.5,208.1,120.9,208.4,121.4z"/>
	<path class="st6" d="M205.6,122.8c0.1,0.8,1.2,1.1,1.7,0.4c0.5-0.7-0.1-1.6-0.9-1.4C205.9,121.8,205.5,122.3,205.6,122.8z"/>
	<path class="st10" d="M194.8,142.5c0.5-5.5,1.5-6.8-0.5-11.7c-1.3-3.2,0.2-5.4,2.9-3.1c4.5,3.8,5.3,11,4.8,13.6L194.8,142.5z
		 M248.6,147.8c-4.1,13.8-15.2,32.6-20.8,33.5c-2.7,0.4-7.3,1.8-11.3-0.8c-8.7-5.6-17-17.4-19.4-24.6c-0.9-2.5,11-10.1,13.2-8.2
		c5.1,4.3,11.7,13.3,12.5,13.2c2.8-0.7,12.7-11.7,19.6-19.5C250.7,132,250.2,142.4,248.6,147.8z"/>
	<path class="st10" d="M198,158.2c0,0-3.5-7-3.5-13c0-4.1,1-13,11.5-19.2c2.5-1.5,7.1-1.8,3.9,2.1c-2.2,2.8-4.6,3.8-5.6,5.7
		c0,0,5.9,0.3,7.3,2.8c1.2,2.2,2.2,4.6,3.1,7c-0.4,0.3-0.8,0.5-1.2,0.7c0,0,1.2,2.4-0.1,6.4L198,158.2z"/>
	<path class="st10" d="M195.2,141.3c1.4-1.6,4.5-5,7.9-6.9c3.8-2.1,11.8-5.1,13.3-2.2c1.1,2.1-1.8,3.5-1.8,3.5s3.6-0.5,4.1,1.6
		c0.5,1.9-1.8,2.9-1.8,2.9s2.2,0,2.4,2c0.2,2.3-4.5,1.9-6.3,4.4C212.6,147.1,195.2,141.3,195.2,141.3z"/>
	<path class="st6" d="M206.9,142.7c3.1-1.8,6.5-2.7,10.1-2.6c0.1,0,0.1,0.1,0.1,0.1C213.6,140.6,210.2,141.5,206.9,142.7
		C206.9,142.7,206.9,142.7,206.9,142.7z M204.7,138.8c2.9-2.1,6.3-3.2,9.9-3.2c0.1,0,0.1,0.1,0.1,0.1
		C211.2,136.4,207.9,137.4,204.7,138.8L204.7,138.8z"/>
	<path class="st2" d="M197.8,161.4c0,0,13.5,19,19.9,20.5c6.4,1.5,10,0.4,12.2-0.3c0.8-0.3,1.6-0.8,2.2-1.5
		c5.5-5.2,14.1-22.3,17.2-31.6c2.4-7,1.1-12.8-3.7-10.2c-1.6,1-3,2.2-4.2,3.7c-8.1,9.2-17.8,18.2-18.3,18c-0.5-0.2-7.2-7.8-7.2-7.8
		L197.8,161.4z"/>
	<g class="st11">
		<g>
			<path d="M197.8,161.4c0,0,13.5,19,19.9,20.5c6.4,1.5,10,0.4,12.2-0.3c0.8-0.3,1.6-0.8,2.2-1.5c5.5-5.2,14.1-22.3,17.2-31.6
				c2.4-7,1.1-12.8-3.7-10.2c-1.6,1-3,2.2-4.2,3.7c-8.1,9.2-17.8,18.2-18.3,18c-0.5-0.2-7.2-7.8-7.2-7.8L197.8,161.4z"/>
		</g>
	</g>
	<path class="st6" d="M200.9,164.7c0.6-0.5,6.8-4,8.1-4.7c1.4-0.7,6.8-3.8,8.3-4.4c0,0,0.1,0,0.1,0c0,0,0,0.1,0,0.1
		c-1.3,0.9-6.8,4-8.2,4.8C207.8,161.2,201.7,164.6,200.9,164.7C200.9,164.9,200.9,164.8,200.9,164.7z"/>
	<path class="st2" d="M233.7,186.6c1,1.1,44.8,8.8,45.1,8.5c0.6-0.8-4.7-42.8-21.4-58.3c-2.9-2.7-8.2-2-10.7-0.7
		c-1.2,0.7-5.5,6.6-6.8,11.9C238.7,153.2,233.1,185.9,233.7,186.6z"/>
	<path class="st12" d="M272.3,163.7l-34.9-2.2c0.1-0.8,0.3-1.5,0.4-2.2l33.8,2.1C271.8,162.1,272.1,162.9,272.3,163.7z M270.7,159
		l-32.5-2c0.1-0.8,0.3-1.6,0.4-2.2l31.1,1.9C270.1,157.4,270.4,158.2,270.7,159z"/>
	<path class="st2" d="M260.4,137.8c14.9,7.6,32,24.6,31,30.3c-1.1,6.3-22.5-4.4-22.3-5.3c0.2-0.8-4.3-7.6-10.7-17.3
		C251.8,135.5,256.7,135.9,260.4,137.8z"/>
	<g class="st11">
		<g>
			<path d="M260.4,137.8c14.9,7.6,32,24.6,31,30.3c-1.1,6.3-22.5-4.4-22.3-5.3c0.2-0.8-4.3-7.6-10.7-17.3
				C251.8,135.5,256.7,135.9,260.4,137.8z"/>
		</g>
	</g>
	<path class="st10" d="M291.3,168c-1.3,4.4-7.9,7.4-23.8,16.4c-2.2,1.2-15.2-11.9-12.9-13.3c2.9-1.8,14.4-8.3,15.3-8.7
		C277.6,159.3,292.2,165.1,291.3,168z"/>
	<path class="st10" d="M257.8,169.2c0,0-6.8,3.5-9.9,6.4c-3.1,3.1-5.3,7-6.6,11.2c-1.4,4.5-1.5,16.4,1.9,17.1
		c3.1,0.6,2.7-11.6,2.7-11.6s-1.6,12.5,2.2,12.5c3.9,0,2.6-14.1,2.6-14.1s-1.4,12.9,2.6,12.3c3-0.5,2.5-13.3,2.5-13.3
		s-1.1,11.1,2,10.7c3.4-0.4,3.8-12.3,3.8-12.3c7.8-2.2,10.6-6.4,12.2-9.7C274.3,177.7,257.8,169.2,257.8,169.2z"/>
	<path class="st6" d="M256.2,187.7c-0.4,2.9-0.5,5.8-0.4,8.7c0,0.1,0.1,0.1,0.1-0.1C256,193.4,256,191.1,256.2,187.7
		C256.3,187.6,256.2,187.6,256.2,187.7z M251.6,188.2c-0.2,1.9-0.5,3.8-0.7,5.6c-0.1,1.9-0.1,3.7-0.1,5.6c0,0.1,0.1,0.1,0.1,0
		c0.1-1.9,0.3-3.6,0.4-5.5S251.4,190.1,251.6,188.2L251.6,188.2z M246.2,187.9c-0.2,1.5-0.5,2.9-0.6,4.4c-0.1,1.5-0.2,3-0.1,4.4
		c0,1.9,0.2,3.9,0.7,5.8c-0.5-3.4-0.2-8.7-0.1-10.2C246.1,190.9,246.2,189.4,246.2,187.9C246.3,187.9,246.2,187.9,246.2,187.9z"/>
	<path class="st2" d="M254.4,169.5c0,0,18.3,13.9,18.5,13.9c0.2-0.1,18.2-10.6,18.4-15.4c0.3-4.7-14.6-8.2-21.3-5.7
		C263.2,165,254.4,169.5,254.4,169.5z"/>
	<g class="st11">
		<g>
			<path d="M254.4,169.5c0,0,18.3,13.9,18.5,13.9c0.2-0.1,18.2-10.6,18.4-15.4c0.3-4.7-14.6-8.2-21.3-5.7
				C263.2,165,254.4,169.5,254.4,169.5z"/>
		</g>
	</g>
	<path class="st6" d="M278.1,161.7c-1.6-0.2-5.9-0.6-9.4,1.1c0,0,0,0.1,0,0.1C271.8,162,274.9,161.6,278.1,161.7
		C278.1,161.7,278.2,161.7,278.1,161.7z M260.6,167.5c0.7,0.4,6.5,5.1,7.7,6.1c1.2,1,6.3,5.2,7.5,6.4c0,0.1,0,0.1-0.1,0.1
		c-1.4-0.9-6.5-5.1-7.8-6.2C266.7,172.9,261.1,168.2,260.6,167.5C260.5,167.6,260.6,167.5,260.6,167.5z"/>
	<path class="st12" d="M245.1,136.7c-1.9,1.7-2.5,7.2,1,8.2c3.6,1.1,8.5-4.7,9.1-7.9C255.8,133.9,249.2,133,245.1,136.7z"/>
	<path class="st10" d="M246.2,143.5c2.6,0.6,6.9-3.4,8.5-6.6c0.1-0.2-0.9-8.8-0.9-10.6c0-0.4-10.8,2.8-10.8,2.8
		c0.7,2.1,1,4.4,1.2,6.6C244.1,136.1,243.7,143,246.2,143.5z"/>
	<path class="st6" d="M253.4,126.4c-0.5,2.8-2.4,10.1-8.2,10.3c-0.4,0-0.7,0-1.1,0v-0.8c-0.1-2.2-0.5-4.4-1.2-6.6l0.2-0.1
		c0.1,0,0.2-0.1,0.3-0.1l0.1,0l0.2-0.1l0.3-0.1l0.5-0.1l0.2-0.1l0.4-0.1l1.5-0.4l0.6-0.2l0.8-0.2l0.8-0.2h0.1l1.3-0.3l0.4-0.1
		l0.8-0.2l0.5-0.1l1.1-0.2l0.2,0L253.4,126.4z"/>
	<path class="st10" d="M253.5,113.1c1.7,3.7,1.2,14.9-1.2,17.8c-3.4,4.1-9.8,5.3-13.5,1c-3.6-4.2-2.7-18.9,0.1-21.5
		C242.9,106.4,251,107.7,253.5,113.1z"/>
	<path class="st6" d="M243.5,121.2C243.5,121.2,243.5,121.2,243.5,121.2c0,0.8,0.1,1.7,0.7,2v0C243.4,123.1,243.3,121.9,243.5,121.2
		z"/>
	<path class="st6" d="M239.2,121.3C239.2,121.3,239.2,121.4,239.2,121.3c-0.1,0.8-0.1,1.7-0.8,2c0,0,0,0,0,0
		C239.3,123.2,239.4,122.1,239.2,121.3z M244.2,120.5c1.2,0,1.2,2.4,0.1,2.4C243.1,122.9,243.1,120.5,244.2,120.5z"/>
	<path class="st6" d="M244.4,128.3c-0.2,0.2-0.4,0.4-0.6,0.4c-0.3,0-0.6-0.1-0.8-0.2l0,0c0.2,0.3,0.6,0.5,1,0.4
		C244.2,128.9,244.4,128.6,244.4,128.3C244.4,128.3,244.4,128.2,244.4,128.3z M237.6,120.1c0.3-0.1,0.6-0.2,1-0.3
		c0.4,0,0.7-0.2,0.9-0.5c0.1-0.2,0.1-0.4,0-0.6c-0.4-0.3-0.8-0.4-1.3-0.2c-0.5,0.1-0.9,0.4-1.2,0.8
		C236.9,119.7,237.2,120.2,237.6,120.1z M245.1,119.3c-0.3-0.1-0.6-0.2-0.9-0.3c-0.4-0.1-0.7-0.3-0.9-0.5c-0.1-0.2-0.1-0.5,0.1-0.6
		c0.4-0.3,0.9-0.3,1.3-0.1c0.5,0.1,0.8,0.4,1.1,0.8C246,119,245.6,119.4,245.1,119.3z M238.6,120.6c-1.2-0.1-1.3,2.4-0.2,2.4
		C239.5,123.1,239.6,120.6,238.6,120.6z"/>
	<path class="st6" d="M243.6,126c-0.4,0.6-1,1-1.7,1.2c-0.3,0.1-0.6,0.1-0.9,0h-0.3c-0.1,0-0.1-0.1-0.1-0.2c0,0,0-0.1,0-0.1v-0.1
		c0-0.6,0-1.5,0-1.5c-0.2,0.1-1.3,0.6-1.3,0.3c0.1-2.6,0.4-5.3,1-7.8c0-0.1,0.2-0.1,0.1,0c-0.1,2.4-0.5,4.9-0.6,7.3
		c0.4-0.2,0.8-0.3,1.2-0.4c0.1,0-0.1,1.7-0.1,2C241.8,126.8,242.7,126.5,243.6,126C243.5,125.9,243.6,125.9,243.6,126z"/>
	<path class="st6" d="M241.2,126.9c0.3,0.4,0.7,0.7,1.2,1c0.3,0.1,0.6,0.1,0.8,0.1c0.6-0.2,0.6-0.8,0.5-1.2
		c-0.1-0.3-0.1-0.5-0.3-0.8C242.9,126.5,242.1,126.8,241.2,126.9z"/>
	<path class="st13" d="M242.5,127.9c0.3,0.1,0.6,0.1,0.8,0.1c0.6-0.2,0.6-0.8,0.5-1.2C243.2,126.7,242.6,127.2,242.5,127.9z"/>
	<path class="st6" d="M237.5,114.9c4,2.5,9.1-1.7,9.1-1.7c0.8,1.7,2.5,2.7,4.4,2.5c0,0,1,6.5,2.8,6.4c2.6-0.1,3.1-9.1,2.2-10.8
		c-0.9-1.7-3.2-2.1-3.2-2.1c-0.3-1.1-1-2-1.9-2.5c-1.9-1.3-8,0.8-8,0.8c-0.4-0.8-1-1.5-1.7-2.1c-0.7-0.6-1.8-0.4-2.3,0.3
		c0.4,0.5,0.6,1,0.7,1.6c0.4,1.9-1.2,2-1.2,0.2c0-0.6,0.1-1.3,0.5-1.8c-0.8-1.1-2.1-1.4-2.8-0.8
		C234.7,106.1,234.2,112.8,237.5,114.9z"/>
	<path class="st10" d="M252.4,122.4c0,0,2.1-3.9,3.8-3.2c1.7,0.7,0.4,6.1-1.4,7c-1,0.6-2.2,0.2-2.7-0.8L252.4,122.4z"/>
	<path class="st6" d="M255.8,120.7L255.8,120.7c-1.3,0.8-1.8,2.1-2.2,3.4c0.3-0.6,1-0.8,1.6-0.5c0.1,0,0.1,0.1,0,0.1
		c-0.5-0.1-1,0.1-1.3,0.6c-0.2,0.4-0.4,0.7-0.5,1.1c0,0.1-0.3,0.1-0.2-0.1v0C252.9,123.6,254,121.1,255.8,120.7z"/>
</g>
</svg>
